<?xml version="1.0" encoding="UTF-8"?>
<svg version="1.1" xmlns="http://www.w3.org/2000/svg" width="664" height="557">
<path d="M0 0 C1.97214478 -0.00472824 1.97214478 -0.00472824 3.98413086 -0.009552 C5.42561883 -0.00776217 6.86710649 -0.0057112 8.30859375 -0.00341797 C9.7806805 -0.00409131 11.25276715 -0.00506158 12.72485352 -0.00631714 C15.81169695 -0.0077927 18.89851148 -0.00564409 21.98535156 -0.00097656 C25.94674481 0.00472065 29.9080703 0.00144089 33.86946106 -0.00454903 C36.90971387 -0.00815845 39.94995056 -0.00701429 42.99020386 -0.00442123 C44.4510804 -0.00375302 45.9119584 -0.00457671 47.37283325 -0.00690079 C49.41261773 -0.0094335 51.45240732 -0.0048904 53.4921875 0 C55.23520142 0.00119339 55.23520142 0.00119339 57.01342773 0.00241089 C59.74609375 0.12939453 59.74609375 0.12939453 61.74609375 1.12939453 C63.24841351 6.82833157 62.88502496 12.82710255 62.87307739 18.67684937 C62.87541738 20.43170023 62.87541738 20.43170023 62.87780464 22.22200263 C62.88109965 25.46122277 62.87991831 28.70040535 62.87681842 31.93962455 C62.87455428 35.43679233 62.87804916 38.93395505 62.88079834 42.43112183 C62.88524553 49.28172869 62.88428382 56.1323246 62.8813857 62.9829319 C62.87912571 68.55664204 62.87882174 74.13034913 62.87990952 79.7040596 C62.88006275 80.49793113 62.88021598 81.29180266 62.88037386 82.10973091 C62.8806936 83.722686 62.88101781 85.3356411 62.88134645 86.94859619 C62.88419864 102.07806353 62.88091926 117.20752481 62.87554608 132.33699115 C62.87108691 145.29302318 62.87184715 158.24904625 62.87646484 171.20507812 C62.88183011 186.26555676 62.8839149 201.32603008 62.88085258 216.38650954 C62.88053405 217.99653029 62.88021968 219.60655105 62.87990952 221.21657181 C62.8796781 222.40463546 62.8796781 222.40463546 62.87944201 223.6167004 C62.87858206 229.17269472 62.88002864 234.72868563 62.88238907 240.28467941 C62.88520935 247.07224107 62.88440251 253.85979119 62.87910832 260.64735155 C62.87649985 264.10448675 62.87541707 267.56160278 62.87875748 271.01873779 C62.88151588 274.78321169 62.87803103 278.54763269 62.87307739 282.31210327 C62.87642348 283.91694566 62.87642348 283.91694566 62.87983716 285.55420911 C62.85810772 294.14828807 62.285355 302.50121456 61.74609375 311.12939453 C128.07609375 310.63439453 128.07609375 310.63439453 195.74609375 310.12939453 C195.74609375 275.70494066 195.63001569 241.30749537 195.09790039 206.8918457 C195.02776103 202.33093315 194.96381288 197.76996498 194.90339851 193.2089138 C194.87985262 191.52398399 194.85403067 189.83908391 194.82555962 188.15423012 C194.68982458 180.11939286 194.68579692 172.16333899 195.23901367 164.14160156 C196.11401943 150.90327763 195.82299868 137.6133994 195.76012802 124.35336494 C195.73676494 119.36497826 195.72367764 114.3765952 195.71243286 109.38816833 C195.67923042 95.21909375 195.63702032 81.05008181 195.57470703 66.88110352 C195.54022939 59.02193388 195.51639809 51.16280734 195.5044986 43.30357021 C195.49640325 38.34340193 195.47517295 33.38351902 195.44429374 28.42344296 C195.4283256 25.35096517 195.4248737 22.27857 195.42506409 19.20605469 C195.42263698 17.78016756 195.41503493 16.35427865 195.40193558 14.92844963 C195.38483004 12.98623154 195.38789237 11.0438667 195.39205933 9.10157776 C195.38799513 8.01419595 195.38393093 6.92681414 195.37974358 5.80648136 C195.74609375 3.12939453 195.74609375 3.12939453 197.07847023 1.27910137 C199.78594919 -0.58751123 202.31584393 -0.23653599 205.55664062 -0.22705078 C206.58882469 -0.23011734 206.58882469 -0.23011734 207.64186096 -0.23324585 C209.91645891 -0.23625393 212.19033196 -0.21777615 214.46484375 -0.19873047 C216.04520488 -0.19567262 217.6255687 -0.19379669 219.20593262 -0.1930542 C222.51808995 -0.1884509 225.83000418 -0.17402462 229.14208984 -0.15185547 C233.38922356 -0.12357312 237.63616577 -0.11264388 241.8833847 -0.10817337 C245.14672768 -0.10401759 248.4100319 -0.09419878 251.6733551 -0.08229828 C253.2394632 -0.07659812 254.805575 -0.07183857 256.37168884 -0.06803131 C258.55970812 -0.06116094 260.74757602 -0.04752481 262.93554688 -0.03173828 C264.1811438 -0.02491028 265.42674072 -0.01808228 266.71008301 -0.01104736 C269.74609375 0.12939453 269.74609375 0.12939453 272.74609375 1.12939453 C274.18359375 3.03564453 274.18359375 3.03564453 275.74609375 5.62939453 C276.66068359 7.11632812 276.66068359 7.11632812 277.59375 8.63330078 C277.93293457 9.18775879 278.27211914 9.7422168 278.62158203 10.31347656 C280.75815629 13.76372391 282.97532324 17.16227236 285.18359375 20.56689453 C285.89696899 21.66880127 285.89696899 21.66880127 286.62475586 22.79296875 C289.91611301 27.87003226 293.24401479 32.92106857 296.61376953 37.9465332 C298.84531839 41.27750441 301.06994977 44.61304183 303.29296875 47.94970703 C306.49047512 52.74777865 309.69035625 57.54424821 312.89390564 62.33828735 C314.7684255 65.1436809 316.64193891 67.94974592 318.51538086 70.75585938 C319.46582043 72.1789827 320.41667109 73.60183155 321.36791992 75.02441406 C326.33562908 82.45436432 331.26375333 89.8983487 336.03588867 97.45605469 C339.00651287 102.09964283 342.09337984 106.66553632 345.16699219 111.24133301 C351.9008966 121.27234481 358.50427967 131.37248094 364.95678711 141.58764648 C369.76199315 149.18744987 374.71978458 156.67464385 379.74609375 164.12939453 C380.10541992 164.70173828 380.46474609 165.27408203 380.83496094 165.86376953 C381.75646634 167.31779464 382.74592538 168.72831479 383.74609375 170.12939453 C384.40609375 170.12939453 385.06609375 170.12939453 385.74609375 170.12939453 C385.85824219 171.15806641 385.85824219 171.15806641 385.97265625 172.20751953 C386.96617025 175.96079464 388.92320544 178.74353007 391.12109375 181.87939453 C392.04022186 183.22365465 392.95814769 184.56873743 393.875 185.91455078 C394.3508252 186.6095166 394.82665039 187.30448242 395.31689453 188.02050781 C397.61893847 191.41733999 399.83874703 194.86600508 402.05859375 198.31689453 C402.98421038 199.75189656 403.90999525 201.18679009 404.8359375 202.62158203 C405.3088623 203.35473633 405.78178711 204.08789062 406.26904297 204.84326172 C408.87812209 208.88151245 411.49991827 212.91148914 414.12109375 216.94189453 C414.9258313 218.17987793 414.9258313 218.17987793 415.74682617 219.44287109 C418.61392236 223.85300029 421.48346443 228.26152253 424.35546875 232.66845703 C425.238396 234.0242688 425.238396 234.0242688 426.13916016 235.4074707 C427.26569222 237.13728657 428.39293291 238.86664122 429.52099609 240.59545898 C430.03098145 241.37880615 430.5409668 242.16215332 431.06640625 242.96923828 C431.51258301 243.6536499 431.95875977 244.33806152 432.41845703 245.04321289 C433.90538806 247.37970161 435.32475154 249.7525576 436.74609375 252.12939453 C436.7494039 250.84280504 436.75271404 249.55621555 436.7561245 248.2306385 C436.83507724 217.71570563 436.92427232 187.20082193 437.02614536 156.68595762 C437.0386648 152.93321679 437.05109749 149.18047567 437.06347656 145.42773438 C437.06594256 144.6806053 437.06840855 143.93347623 437.07094927 143.16370688 C437.11071423 131.0532662 437.14344499 118.94281613 437.17359357 106.83234812 C437.20466583 94.41347393 437.24325696 81.99463966 437.28888381 69.57581031 C437.31681794 61.90766528 437.33882951 54.23954959 437.35335626 46.57136725 C437.36510692 40.69953014 437.38729926 34.82776227 437.41347694 28.95597076 C437.42258555 26.54121066 437.42825054 24.12643488 437.43030739 21.71165848 C437.43360684 18.42795036 437.44902092 15.14452205 437.46762085 11.86087036 C437.46568612 10.89395897 437.46375138 9.92704758 437.46175802 8.93083584 C437.46922351 8.05600485 437.476689 7.18117386 437.48438072 6.27983284 C437.48665904 5.52115162 437.48893737 4.7624704 437.49128473 3.98079884 C437.74609375 2.12939453 437.74609375 2.12939453 439.74609375 0.12939453 C442.48548889 -0.11784363 442.48548889 -0.11784363 446.01586914 -0.11352539 C447.33386002 -0.11660202 448.65185089 -0.11967865 450.00978088 -0.12284851 C451.45443902 -0.11595128 452.89909544 -0.10868435 454.34375 -0.10107422 C455.81823181 -0.09988255 457.29271439 -0.09942923 458.76719666 -0.09968567 C461.8582738 -0.09812047 464.94923518 -0.08982733 468.0402832 -0.07641602 C472.01075128 -0.05941122 475.98109222 -0.05560207 479.95159245 -0.0563612 C482.9961011 -0.05608985 486.04058174 -0.05061456 489.0850811 -0.04335976 C490.54957301 -0.04016857 492.01406811 -0.03820464 493.47856331 -0.03746605 C495.52095805 -0.0353081 497.56334105 -0.02577912 499.60571289 -0.01586914 C501.35205772 -0.01015144 501.35205772 -0.01015144 503.13368225 -0.00431824 C505.74609375 0.12939453 505.74609375 0.12939453 506.74609375 1.12939453 C506.84984231 3.12192122 506.88194973 5.11818243 506.88755226 7.11340046 C506.8936434 8.42268145 506.89973455 9.73196244 506.90601027 11.08091861 C506.90777777 12.5529945 506.90945135 14.02507051 506.91104126 15.49714661 C506.91631806 17.04608533 506.92203009 18.59502262 506.92814291 20.14395827 C506.94373139 24.42096348 506.95303913 28.69796341 506.96136141 32.9749881 C506.97138956 37.57973642 506.98713016 42.18446559 507.00215149 46.78919983 C507.03066555 55.81887584 507.05375355 64.84855807 507.07492925 73.87825397 C507.09223079 81.21515876 507.11146319 88.55205609 507.13209152 95.88895226 C507.13502012 96.9311977 507.13794871 97.97344314 507.14096605 99.04727178 C507.14692286 101.16427934 507.15288407 103.28128688 507.15884964 105.39829441 C507.21463326 125.27626327 507.26427903 145.15424389 507.31185465 165.03223386 C507.35284997 182.10085004 507.39910886 199.16944534 507.44921875 216.23803711 C507.50734437 236.0377887 507.56219632 255.83754488 507.61181962 275.63731974 C507.61711791 277.74767634 507.62242052 279.85803293 507.62772751 281.96838951 C507.63164226 283.52606095 507.63164226 283.52606095 507.6356361 285.11520049 C507.65428404 292.44459718 507.6752873 299.77398497 507.69719315 307.10337257 C507.72382132 316.03382248 507.74686672 324.96427295 507.76527812 333.89474372 C507.77476919 338.45413295 507.78589654 343.01350283 507.80138206 347.57287598 C507.81550057 351.74328074 507.82498712 355.91366892 507.83071212 360.08409341 C507.83361014 361.59624216 507.83822835 363.10838874 507.84470089 364.62052641 C507.85321917 366.66962529 507.85495521 368.71874905 507.85631752 370.76786518 C507.85919293 371.90800298 507.86206834 373.04814078 507.86503088 374.22282821 C507.76315414 376.71247558 507.47515184 378.76026086 506.74609375 381.12939453 C485.03871377 381.84299532 463.44217267 382.53644906 441.74609375 381.12939453 C441.64312988 380.57082764 441.54016602 380.01226074 441.43408203 379.43676758 C440.60468697 376.6551449 439.32611219 374.64269161 437.73828125 372.21142578 C437.10631836 371.24027832 436.47435547 370.26913086 435.82324219 369.26855469 C432.57386465 364.35782403 429.31824716 359.45162339 426.03955078 354.5604248 C415.41479153 338.70653467 415.41479153 338.70653467 410.74609375 331.37939453 C408.00266174 327.07504431 405.21331073 322.80646557 402.37109375 318.56689453 C396.28972864 309.49516846 390.32486172 300.34682521 384.34619141 291.20727539 C383.94178833 290.58921021 383.53738525 289.97114502 383.12072754 289.33435059 C382.00872756 287.63464003 380.89717172 285.93463892 379.78564453 284.23461914 C379.11259277 283.20989502 378.43954102 282.1851709 377.74609375 281.12939453 C377.04081543 280.04859619 376.33553711 278.96779785 375.60888672 277.85424805 C373.86904783 275.12923066 373.86904783 275.12923066 371.74609375 273.12939453 C370.65631756 271.31214242 369.59834428 269.475725 368.55859375 267.62939453 C365.79969388 262.84389538 362.86205631 258.31548908 359.65234375 253.82470703 C357.52447307 250.81603742 355.4716415 247.76164058 353.43359375 244.69189453 C353.01658203 244.06395996 352.59957031 243.43602539 352.16992188 242.7890625 C351.2264381 241.36808389 350.28308785 239.94701662 349.33984375 238.52587891 C347.6046947 235.9167761 345.86335662 233.31187721 344.12109375 230.70751953 C333.0146302 214.09524206 322.00978988 197.41676769 311.02416992 180.72436523 C303.91476837 169.92353444 296.78402695 159.13797881 289.58480835 148.39675903 C282.19787137 137.37424786 274.97907269 126.25705443 267.74609375 115.12939453 C267.41609375 202.90939453 267.08609375 290.68939453 266.74609375 381.12939453 C257.74604131 382.25440109 257.74604131 382.25440109 254.36512184 382.25523567 C253.5913308 382.25784342 252.81753976 382.26045117 252.02030051 382.26313794 C251.1967889 382.26090721 250.37327729 382.25867649 249.52481079 382.25637817 C248.62880988 382.25793816 247.73280896 382.25949816 246.8096565 382.26110542 C243.82311988 382.2650765 240.8366346 382.2619405 237.85009766 382.25878906 C235.70034251 382.26014515 233.5505876 382.26192626 231.40083313 382.26409912 C225.56189037 382.26865799 219.7229653 382.26688775 213.88402224 382.26372004 C207.73106115 382.26117742 201.57810153 382.26354028 195.42514038 382.2651062 C185.05653617 382.266927 174.68793907 382.26452877 164.31933594 382.25976562 C152.44347636 382.25437197 140.56763409 382.25604992 128.69177496 382.26159203 C118.42946943 382.26618467 108.167169 382.2667427 97.90486276 382.26415336 C91.80701121 382.26261759 85.70916767 382.2623195 79.61131668 382.26568985 C50.30775986 382.27973344 21.03749524 382.00109722 -8.25390625 381.12939453 C-9.19446538 377.94629024 -9.3791774 375.09112644 -9.37974739 371.77765942 C-9.38235514 370.68544368 -9.38496289 369.59322794 -9.38764966 368.46791476 C-9.38541893 367.26808831 -9.38318821 366.06826186 -9.38088989 364.83207703 C-9.38322988 362.9189292 -9.38322988 362.9189292 -9.38561714 360.96713191 C-9.38980034 357.42243901 -9.38772398 353.87777295 -9.38463092 350.33307993 C-9.38237179 346.50861148 -9.3858598 342.6841477 -9.38861084 338.85968018 C-9.39306849 331.35134599 -9.39209021 323.84302178 -9.3891982 316.3346872 C-9.38693559 310.203484 -9.38663539 304.07228359 -9.38772202 297.94108009 C-9.38787525 297.06661086 -9.38802848 296.19214162 -9.38818636 295.29117331 C-9.38850614 293.51377767 -9.38883035 291.73638202 -9.38915895 289.95898638 C-9.3920159 273.25412256 -9.38872779 256.5492642 -9.38335858 239.84440128 C-9.37893017 225.63120939 -9.37963286 211.41802571 -9.38427734 197.20483398 C-9.3896889 180.63694096 -9.39169949 164.0690528 -9.38866508 147.50115901 C-9.38834663 145.71487701 -9.38803225 143.92859501 -9.38772202 142.142313 C-9.38756774 141.26395273 -9.38741346 140.38559245 -9.38725451 139.48061519 C-9.38640582 133.41046818 -9.38783482 127.34032437 -9.39020157 121.27017784 C-9.4045107 81.21040766 -9.18656523 41.18044638 -8.25390625 1.12939453 C-5.45124217 -0.27193751 -3.13505287 0.00214648 0 0 Z " fill="#007673" transform="translate(84.25390625,89.87060546875)"/>
<path d="M0 0 C4.49807322 2.24903661 4.49807322 2.24903661 6.4453125 5.38671875 C6.877229 6.07008301 7.30914551 6.75344727 7.75415039 7.45751953 C8.43272095 8.56135986 8.43272095 8.56135986 9.125 9.6875 C10.10450544 11.24149302 11.08499329 12.79486721 12.06640625 14.34765625 C12.5577002 15.13027832 13.04899414 15.91290039 13.55517578 16.71923828 C15.6701167 20.05782869 17.85988964 23.34383689 20.0625 26.625 C20.47064941 27.23496826 20.87879883 27.84493652 21.29931641 28.47338867 C22.12116417 29.70161434 22.94342781 30.92956185 23.76611328 32.15722656 C25.84911312 35.26812541 27.92411494 38.3843511 30 41.5 C30.83329578 42.75002503 31.6666291 44.00002505 32.5 45.25 C37.5 52.75 37.5 52.75 38.68000793 54.52008057 C39.5121875 55.76830662 40.34444228 57.01648254 41.17680359 58.2645874 C43.20816426 61.31081004 45.23841283 64.35775437 47.26489258 67.40722656 C51.26769654 73.42667959 55.28641753 79.434182 59.35177612 85.41162109 C61.30977596 88.29255799 63.25965753 91.17894305 65.20874023 94.06591797 C66.21074725 95.54585106 67.21639857 97.02332209 68.2253418 98.49853516 C69.70546309 100.66453177 71.17229373 102.83899639 72.63671875 105.015625 C73.31923958 106.00456757 73.31923958 106.00456757 74.01554871 107.01348877 C75.09048795 108.6250027 76.05619148 110.30834489 77 112 C76.67 112.99 76.34 113.98 76 115 C72.06898998 109.18902551 68.14069295 103.37622358 64.21411133 97.56225586 C62.88332734 95.59245188 61.55196547 93.62303817 60.2199707 91.65405273 C52.82844474 80.72684392 45.4898844 69.77457224 38.36669922 58.67016602 C33.94583802 51.78582112 29.35886519 45.00953099 24.80273438 38.21435547 C17.42792706 27.20947729 10.22129852 16.10969002 3 5 C2.67 92.78 2.34 180.56 2 271 C-7.00005244 272.12500656 -7.00005244 272.12500656 -10.38097191 272.12584114 C-11.15476295 272.12844889 -11.92855399 272.13105664 -12.72579324 272.13374341 C-13.54930485 272.13151268 -14.37281646 272.12928196 -15.22128296 272.12698364 C-16.11728387 272.12854363 -17.01328479 272.13010362 -17.93643725 272.13171089 C-20.92297387 272.13568197 -23.90945915 272.13254597 -26.89599609 272.12939453 C-29.04575124 272.13075062 -31.19550615 272.13253173 -33.34526062 272.13470459 C-39.18420338 272.13926346 -45.02312845 272.13749322 -50.86207151 272.1343255 C-57.0150326 272.13178289 -63.16799222 272.13414575 -69.32095337 272.13571167 C-79.68955758 272.13753247 -90.05815468 272.13513424 -100.42675781 272.13037109 C-112.30261739 272.12497744 -124.17845966 272.12665539 -136.05431879 272.1321975 C-146.31662432 272.13679014 -156.57892475 272.13734817 -166.84123099 272.13475883 C-172.93908254 272.13322306 -179.03692608 272.13292497 -185.13477707 272.13629532 C-214.43833389 272.1503389 -243.70859851 271.87170269 -273 271 C-273.33 269.68 -273.66 268.36 -274 267 C-272.91738199 267.01691847 -272.91738199 267.01691847 -271.81289291 267.03417873 C-230.29816619 267.67732352 -188.7848621 268.1073755 -147.265625 268.31640625 C-146.28179179 268.3213865 -145.29795858 268.32636674 -144.28431225 268.33149791 C-127.60623848 268.41541831 -110.92811945 268.48796699 -94.25 268.5625 C-63.1475 268.706875 -32.045 268.85125 0 269 C0 180.23 0 91.46 0 0 Z " fill="#0A5555" transform="translate(349,200)"/>
<path d="M0 0 C8.5880572 -0.02312635 17.17610149 -0.04091658 25.76418209 -0.05181217 C29.751572 -0.05704036 33.73894067 -0.06413684 37.72631836 -0.07543945 C41.57125114 -0.08627061 45.41616345 -0.09227732 49.26111031 -0.09487724 C50.73118983 -0.09673108 52.20126818 -0.10035091 53.67133904 -0.10573006 C55.72354467 -0.11294355 57.77566467 -0.11399081 59.82788086 -0.11352539 C61.58327431 -0.11685631 61.58327431 -0.11685631 63.37413025 -0.12025452 C66 0 66 0 67 1 C67.10374856 2.99252669 67.13585598 4.9887879 67.14145851 6.98400593 C67.14754965 8.29328692 67.1536408 9.60256791 67.15991652 10.95152408 C67.16168402 12.42359997 67.1633576 13.89567598 67.16494751 15.36775208 C67.17022431 16.9166908 67.17593634 18.46562809 67.18204916 20.01456374 C67.19763764 24.29156895 67.20694538 28.56856888 67.21526766 32.84559357 C67.22529581 37.45034189 67.24103641 42.05507105 67.25605774 46.6598053 C67.2845718 55.68948131 67.3076598 64.71916354 67.3288355 73.74885944 C67.34613704 81.08576423 67.36536944 88.42266156 67.38599777 95.75955772 C67.38892637 96.80180317 67.39185496 97.84404861 67.3948723 98.91787725 C67.40082911 101.03488481 67.40679032 103.15189235 67.41275589 105.26889988 C67.46853951 125.14686874 67.51818528 145.02484936 67.5657609 164.90283933 C67.60675622 181.97145551 67.65301511 199.04005081 67.703125 216.10864258 C67.76125062 235.90839416 67.81610257 255.70815035 67.86572587 275.50792521 C67.87102416 277.61828181 67.87632677 279.7286384 67.88163376 281.83899498 C67.88424359 282.8774426 67.88685343 283.91589023 67.88954235 284.98580596 C67.90819029 292.31520265 67.92919355 299.64459044 67.9510994 306.97397804 C67.97772757 315.90442794 68.00077297 324.83487842 68.01918437 333.76534919 C68.02867544 338.32473842 68.03980279 342.88410829 68.05528831 347.44348145 C68.06940682 351.61388621 68.07889337 355.78427438 68.08461837 359.95469888 C68.08751639 361.46684763 68.0921346 362.97899421 68.09860714 364.49113188 C68.10712542 366.54023076 68.10886146 368.58935452 68.11022377 370.63847065 C68.11309918 371.77860845 68.11597459 372.91874625 68.11893713 374.09343368 C68.01706039 376.58308105 67.72905809 378.63086633 67 381 C23.78520834 382.40027356 23.78520834 382.40027356 5 381 C5 380.67 5 380.34 5 380 C25.03037115 378.64036269 44.86154072 379 65 379 C65 254.59 65 130.18 65 2 C43.55 2 22.1 2 0 2 C0 1.34 0 0.68 0 0 Z " fill="#024545" transform="translate(524,90)"/>
<path d="M0 0 C1.03218407 -0.00306656 1.03218407 -0.00306656 2.08522034 -0.00619507 C4.35981828 -0.00920315 6.63369133 0.00927463 8.90820312 0.02832031 C10.48856426 0.03137816 12.06892808 0.03325409 13.64929199 0.03399658 C16.96144932 0.03859988 20.27336356 0.05302616 23.58544922 0.07519531 C27.83258293 0.10347766 32.07952515 0.1144069 36.32674408 0.11887741 C39.59008706 0.12303319 42.85339128 0.132852 46.11671448 0.1447525 C47.68282257 0.15045266 49.24893438 0.15521221 50.81504822 0.15901947 C53.00306749 0.16588984 55.19093539 0.17952597 57.37890625 0.1953125 C58.62450317 0.2021405 59.8701001 0.20896851 61.15344238 0.21600342 C64.18945312 0.35644531 64.18945312 0.35644531 67.18945312 1.35644531 C68.62695312 3.26269531 68.62695312 3.26269531 70.18945312 5.85644531 C70.79917969 6.84773438 71.40890625 7.83902344 72.03710938 8.86035156 C72.54588623 9.69203857 72.54588623 9.69203857 73.06494141 10.54052734 C75.20151566 13.9907747 77.41868261 17.38932314 79.62695312 20.79394531 C80.34032837 21.89585205 80.34032837 21.89585205 81.06811523 23.02001953 C85.05427725 29.16885018 89.10857316 35.27010434 93.18945312 41.35644531 C94.98254093 44.04299847 96.77345497 46.73099879 98.56445312 49.41894531 C99.40556253 50.68068834 100.24670602 51.94240866 101.08789062 53.20410156 C103.13867188 56.28027344 103.13867188 56.28027344 105.18945312 59.35644531 C104.85945313 60.34644531 104.52945313 61.33644531 104.18945312 62.35644531 C100.81445312 57.29394531 100.81445312 57.29394531 99.72973633 55.66577148 C97.7628205 52.71392077 95.79325676 49.76390048 93.81835938 46.81738281 C88.96828381 39.57359817 84.17772976 32.29547196 79.47143555 24.95727539 C74.79987866 17.69415796 69.98262444 10.54620228 65.18945312 3.35644531 C41.09945312 3.02644531 17.00945312 2.69644531 -7.81054688 2.35644531 C-7.81054688 73.63644531 -7.81054688 144.91644531 -7.81054688 218.35644531 C-8.14054687 218.35644531 -8.47054688 218.35644531 -8.81054688 218.35644531 C-9.64402611 174.80093316 -10.02542424 131.25414331 -10.04937506 87.69083869 C-10.05417629 79.11439948 -10.07213785 70.53811168 -10.10044217 61.96171826 C-10.12198317 55.19440419 -10.13213969 48.42713357 -10.13348269 41.65978557 C-10.13452455 37.66714255 -10.14031547 33.67464881 -10.15830231 29.68204308 C-10.17467718 25.98515152 -10.17699119 22.2885247 -10.1681633 18.59160995 C-10.16702199 16.59486211 -10.18076943 14.59812323 -10.19491577 12.60142517 C-10.18656204 10.82816864 -10.18656204 10.82816864 -10.17803955 9.01908875 C-10.17950611 7.99145259 -10.18097267 6.96381643 -10.18248367 5.90503979 C-9.81054688 3.35644531 -9.81054688 3.35644531 -8.47732925 1.52549839 C-5.77570253 -0.36937707 -3.25083979 -0.0095146 0 0 Z " fill="#084848" transform="translate(289.810546875,89.6435546875)"/>
<path d="M0 0 C0.33 0 0.66 0 1 0 C1.15066635 36.40010437 1.29569827 72.80022688 1.4332476 109.20038324 C1.44951722 113.50460135 1.46583316 117.80881928 1.48217773 122.11303711 C1.48543066 122.96987489 1.48868358 123.82671266 1.49203508 124.70951522 C1.54471184 138.55580959 1.60113431 152.40208625 1.6589582 166.24835997 C1.71827357 180.47189414 1.77352383 194.69543998 1.82505554 208.9190045 C1.85694101 217.68498971 1.89194014 226.45095086 1.93101191 235.21690703 C1.95755509 241.24038559 1.98012476 247.26387117 1.99967117 253.28737646 C2.011037 256.75473214 2.02405716 260.22205902 2.04183006 263.68938828 C2.1092349 277.4975468 2.10302159 291.22927666 1 305 C0.67 305 0.34 305 0 305 C-1.02706951 298.24149902 -1.14049175 291.63637988 -1.12698364 284.80738831 C-1.12854363 283.59252697 -1.13010362 282.37766564 -1.13171089 281.12599033 C-1.13499935 277.77111 -1.1338294 274.41628598 -1.13072467 271.06140912 C-1.1284567 267.43709125 -1.13195702 263.8127782 -1.13470459 260.1884613 C-1.13914537 253.09718015 -1.13819361 246.0059096 -1.13529195 238.91462804 C-1.13303252 233.15443333 -1.13272773 227.39424158 -1.13381577 221.63404655 C-1.133969 220.81391227 -1.13412223 219.99377798 -1.13428011 219.14879115 C-1.13459983 217.48273715 -1.13492404 215.81668315 -1.1352527 214.15062916 C-1.13810221 198.53994564 -1.1348281 182.929268 -1.12945233 167.31858545 C-1.12497892 153.91266406 -1.12576567 140.50675132 -1.13037109 127.10083008 C-1.13571611 111.53471212 -1.13783373 95.96859929 -1.13475883 80.40248054 C-1.13444027 78.74473473 -1.1341259 77.08698891 -1.13381577 75.42924309 C-1.13366149 74.61356706 -1.13350721 73.79789104 -1.13334826 72.95749756 C-1.13248333 67.19806416 -1.13394536 61.43863402 -1.13629532 55.67920113 C-1.13909245 48.66984245 -1.13835667 41.66049498 -1.13301457 34.6511376 C-1.13037728 31.07230592 -1.12937305 27.49349297 -1.13266373 23.91466141 C-1.13616881 20.04433896 -1.13199856 16.17404753 -1.12698364 12.3037262 C-1.12921436 11.1603753 -1.13144509 10.0170244 -1.13374341 8.83902651 C-1.13113566 7.81088396 -1.12852791 6.78274141 -1.12584114 5.72344303 C-1.12567879 4.82898159 -1.12551644 3.93452015 -1.12534916 3.01295382 C-1 1 -1 1 0 0 Z " fill="#034244" transform="translate(145,97)"/>
<path d="M0 0 C4.49807322 2.24903661 4.49807322 2.24903661 6.4453125 5.38671875 C7.09318726 6.41176514 7.09318726 6.41176514 7.75415039 7.45751953 C8.20653076 8.19341309 8.65891113 8.92930664 9.125 9.6875 C10.10450544 11.24149302 11.08499329 12.79486721 12.06640625 14.34765625 C12.5577002 15.13027832 13.04899414 15.91290039 13.55517578 16.71923828 C15.6701167 20.05782869 17.85988964 23.34383689 20.0625 26.625 C20.47064941 27.23496826 20.87879883 27.84493652 21.29931641 28.47338867 C22.12116417 29.70161434 22.94342781 30.92956185 23.76611328 32.15722656 C25.84911312 35.26812541 27.92411494 38.3843511 30 41.5 C30.83329578 42.75002503 31.6666291 44.00002505 32.5 45.25 C37.5 52.75 37.5 52.75 38.68000793 54.52008057 C39.5121875 55.76830662 40.34444228 57.01648254 41.17680359 58.2645874 C43.20816426 61.31081004 45.23841283 64.35775437 47.26489258 67.40722656 C51.26769654 73.42667959 55.28641753 79.434182 59.35177612 85.41162109 C61.30977596 88.29255799 63.25965753 91.17894305 65.20874023 94.06591797 C66.21074725 95.54585106 67.21639857 97.02332209 68.2253418 98.49853516 C69.70546309 100.66453177 71.17229373 102.83899639 72.63671875 105.015625 C73.09173264 105.67492004 73.54674652 106.33421509 74.01554871 107.01348877 C75.09048795 108.6250027 76.05619148 110.30834489 77 112 C76.505 113.485 76.505 113.485 76 115 C72.06898998 109.18902551 68.14069295 103.37622358 64.21411133 97.56225586 C62.88332734 95.59245188 61.55196547 93.62303817 60.2199707 91.65405273 C52.82844474 80.72684392 45.4898844 69.77457224 38.36669922 58.67016602 C33.94583802 51.78582112 29.35886519 45.00953099 24.80273438 38.21435547 C19.45939547 30.24088697 14.17408043 22.2315711 8.9375 14.1875 C8.36475342 13.30876221 7.79200684 12.43002441 7.2019043 11.5246582 C6.66992432 10.70570068 6.13794434 9.88674316 5.58984375 9.04296875 C4.87622681 7.94505005 4.87622681 7.94505005 4.14819336 6.82495117 C3 5 3 5 2 3 C1.67 90.78 1.34 178.56 1 269 C0.67 269 0.34 269 0 269 C0 180.23 0 91.46 0 0 Z " fill="#002D2C" transform="translate(349,200)"/>
<path d="M0 0 C0.33 0 0.66 0 1 0 C1.17412515 28.4999574 1.34019423 56.99995873 1.5 85.5 C1.50594854 86.55926004 1.51189708 87.61852009 1.51802588 88.70987892 C1.85269474 148.39010384 2.09813577 208.06876519 2.0625 267.75 C2.06207577 268.48266964 2.06165154 269.21533928 2.06121445 269.97021103 C2.0506005 287.98015428 2.03109048 305.99007969 2 324 C1.34 324.33 0.68 324.66 0 325 C-0.69048477 260.7449523 -1.10954183 196.49372585 -1.12283063 132.23495615 C-1.1240967 126.53196048 -1.12782995 120.82897029 -1.13256836 115.12597656 C-1.16225784 76.73754408 -0.9252106 38.37957795 0 0 Z " fill="#063636" transform="translate(76,93)"/>
<path d="M0 0 C48.18 0.66 96.36 1.32 146 2 C146 2.33 146 2.66 146 3 C145.07736359 3.01030746 144.15472717 3.02061493 143.20413208 3.03123474 C134.52216525 3.12908786 125.84026847 3.23158476 117.15841866 3.33933926 C112.69466778 3.39457602 108.23091036 3.44799723 103.76708984 3.49731445 C99.46174175 3.5449469 95.15647464 3.5972893 90.85122299 3.65294075 C89.20615523 3.67336939 87.56106525 3.69208162 85.9159584 3.70907402 C83.61723018 3.73310681 81.31865561 3.76316278 79.02001953 3.79467773 C77.05477829 3.81799416 77.05477829 3.81799416 75.04983521 3.84178162 C72.08307645 3.79168072 72.08307645 3.79168072 70 5 C68.46079382 5.09767472 66.91730083 5.13077396 65.375 5.1328125 C63.87900269 5.13571289 63.87900269 5.13571289 62.3527832 5.13867188 C61.24636475 5.13416016 60.13994629 5.12964844 59 5.125 C57.84910889 5.12306641 56.69821777 5.12113281 55.51245117 5.11914062 C37.33809968 5.03466878 19.16711325 4.48663066 1 4 C0.67 2.68 0.34 1.36 0 0 Z " fill="#017371" transform="translate(75,467)"/>
<path d="M0 0 C4.92898363 4.41940826 8.21049483 9.62850814 11.75 15.1875 C13.0738596 17.24241892 14.39809367 19.29709664 15.72265625 21.3515625 C16.41504395 22.42954102 17.10743164 23.50751953 17.82080078 24.61816406 C21.2064521 29.88123796 24.63802359 35.11438977 28.06628418 40.34976196 C29.16647282 42.03037947 30.26537794 43.711837 31.36425781 45.39331055 C32.68234285 47.40976755 34.00262757 49.42478939 35.32568359 51.43798828 C36.33037254 52.97534696 37.32601189 54.51876078 38.30322266 56.07373047 C39.15325731 57.41475704 40.06706457 58.71526553 41 60 C41.66 60 42.32 60 43 60 C43.07476562 60.68578125 43.14953125 61.3715625 43.2265625 62.078125 C44.22007069 65.83137817 46.17708661 68.61416062 48.375 71.75 C49.29153061 73.09034925 50.2068511 74.43152661 51.12109375 75.7734375 C51.59659668 76.46791992 52.07209961 77.16240234 52.56201172 77.87792969 C55.37876219 82.0346691 58.0825174 86.26481315 60.79541016 90.48974609 C63.22284822 94.2660487 65.67556533 98.02138071 68.17578125 101.75 C68.94740601 102.91136475 68.94740601 102.91136475 69.73461914 104.09619141 C70.7268844 105.58834606 71.72710151 107.07525051 72.73608398 108.55615234 C73.90298627 110.32104694 74.96211549 112.15627832 76 114 C75.505 115.485 75.505 115.485 75 117 C74.59910156 116.36835938 74.19820313 115.73671875 73.78515625 115.0859375 C65.54733729 102.12211356 57.21208609 89.24005573 48.66333008 76.47827148 C43.46170886 68.70958303 38.35316278 60.88608097 33.29882812 53.02099609 C27.59195939 44.14102253 21.87336314 35.27099774 16 26.5 C12.26478098 20.91339187 8.5521672 15.31252062 4.875 9.6875 C4.38902344 8.95144531 3.90304687 8.21539062 3.40234375 7.45703125 C0 2.2302423 0 2.2302423 0 0 Z " fill="#054343" transform="translate(427,200)"/>
<path d="M0 0 C3.79858371 3.42927696 6.30203851 7.33192195 9 11.625 C9.97674084 13.15696705 10.95464496 14.68819292 11.93359375 16.21875 C12.43745605 17.00765625 12.94131836 17.7965625 13.46044922 18.609375 C15.95111101 22.47689169 18.50439784 26.30187959 21.0625 30.125 C21.56442871 30.87579834 22.06635742 31.62659668 22.58349609 32.40014648 C23.57858062 33.88793494 24.57401674 35.3754883 25.56982422 36.86279297 C27.75933707 40.13472802 29.94207116 43.41117037 32.125 46.6875 C32.95048346 47.92580617 33.77600392 49.16408767 34.6015625 50.40234375 C49.03515625 72.05273437 49.03515625 72.05273437 50.13948059 73.70928955 C50.90623177 74.85937021 51.67306852 76.00939382 52.43998718 77.15936279 C54.41616723 80.12282515 56.39088473 83.08724176 58.36254883 86.05371094 C61.68325621 91.04711058 65.00821553 96.03540211 68.41796875 100.96875 C68.89685547 101.66677734 69.37574219 102.36480469 69.86914062 103.08398438 C70.71990205 104.32042432 71.57873445 105.55136762 72.44726562 106.77539062 C73.54296875 108.375 73.54296875 108.375 75 111 C74.505 112.485 74.505 112.485 74 114 C70.06898998 108.18902551 66.14069295 102.37622358 62.21411133 96.56225586 C60.88332734 94.59245188 59.55196547 92.62303817 58.2199707 90.65405273 C50.82844474 79.72684392 43.4898844 68.77457224 36.36669922 57.67016602 C31.94583802 50.78582112 27.35886519 44.00953099 22.80273438 37.21435547 C19.85629966 32.81760939 16.92389211 28.41176627 14 24 C13.44248047 23.16082031 12.88496094 22.32164062 12.31054688 21.45703125 C10.51318471 18.74631964 8.72446763 16.03007274 6.9375 13.3125 C6.36475342 12.45052002 5.79200684 11.58854004 5.2019043 10.70043945 C4.66992432 9.88792725 4.13794434 9.07541504 3.58984375 8.23828125 C2.87622681 7.156073 2.87622681 7.156073 2.14819336 6.05200195 C1.01218499 4.02177648 0.4430298 2.27336665 0 0 Z " fill="#064040" transform="translate(351,201)"/>
<path d="M0 0 C3.31818129 3.06635503 5.61163641 6.29819016 8 10.125 C8.78890229 11.3759234 9.5793477 12.62587456 10.37109375 13.875 C11.00313721 14.87273437 11.00313721 14.87273437 11.64794922 15.890625 C14.06949831 19.66855641 16.56735963 23.39543002 19.0625 27.125 C19.57949463 27.89875977 20.09648926 28.67251953 20.62915039 29.46972656 C22.77859695 32.68483639 24.93136863 35.89769556 27.0859375 39.109375 C31.81693108 46.17592237 36.45119027 53.30288095 41.07739258 60.43823242 C44.39220664 65.5449156 47.73636406 70.62954816 51.125 75.6875 C52.31847584 77.47561908 53.51090668 79.26442788 54.70263672 81.05371094 C55.63765215 82.45641003 56.57438682 83.85796365 57.51220703 85.25878906 C59.07886828 87.60467973 60.63419362 89.95775099 62.1875 92.3125 C62.6820166 93.04879639 63.1765332 93.78509277 63.68603516 94.54370117 C64.85281055 96.32325407 65.93532782 98.15754336 67 100 C66.67 100.66 66.34 101.32 66 102 C60.35744509 94.61489137 55.35573641 86.92468931 50.42919922 79.05249023 C46.40163758 72.61818392 42.24551733 66.29306013 38 60 C36.37211906 57.56441833 34.74863444 55.12591393 33.125 52.6875 C30.6432136 48.96222686 28.16043851 45.23766748 25.66796875 41.51953125 C19.73059042 32.65248471 13.89285793 23.72270959 8.08911133 14.76757812 C7.16521606 13.34541992 7.16521606 13.34541992 6.22265625 11.89453125 C5.67359619 11.04737549 5.12453613 10.20021973 4.55883789 9.32739258 C3.04034657 6.98775194 3.04034657 6.98775194 1.29858398 4.8815918 C0 3 0 3 0 0 Z " fill="#074141" transform="translate(459,364)"/>
<path d="M0 0 C32.67 0.495 32.67 0.495 66 1 C66 1.33 66 1.66 66 2 C44.88 2 23.76 2 2 2 C2 19.49 2 36.98 2 55 C1.67 55 1.34 55 1 55 C0.67 36.85 0.34 18.7 0 0 Z " fill="#056C6A" transform="translate(76,91)"/>
<path d="M0 0 C0.33 0.66 0.66 1.32 1 2 C1.85303711 1.96970703 2.70607422 1.93941406 3.58496094 1.90820312 C18.93040124 1.37437726 34.2688635 0.89977462 49.625 0.875 C50.77194336 0.87048828 51.91888672 0.86597656 53.10058594 0.86132812 C58.5075737 0.87107337 63.6751345 1.03877786 69 2 C69 2.33 69 2.66 69 3 C45.96659855 4.36859742 23.04431096 3.72398241 0 3 C0 2.01 0 1.02 0 0 Z " fill="#033435" transform="translate(76,468)"/>
<path d="M0 0 C0.33 0 0.66 0 1 0 C1 11.55 1 23.1 1 35 C1.66 35 2.32 35 3 35 C2.67 41.93 2.34 48.86 2 56 C1.67 56 1.34 56 1 56 C0.0309613 49.53527123 -0.13107425 43.24950714 -0.09765625 36.71875 C-0.0962413 35.66465942 -0.09482635 34.61056885 -0.09336853 33.52453613 C-0.08780508 30.18299429 -0.07525941 26.84152133 -0.0625 23.5 C-0.05748027 21.22395931 -0.0529182 18.94791755 -0.04882812 16.671875 C-0.03784764 11.11456013 -0.02114622 5.55728499 0 0 Z " fill="#025657" transform="translate(144,346)"/>
<path d="M0 0 C0.66 0 1.32 0 2 0 C3.38402996 1.93019424 4.63769166 3.85247151 5.875 5.875 C6.67126509 7.15093478 7.46955114 8.42560991 8.26953125 9.69921875 C8.91849365 10.73248291 8.91849365 10.73248291 9.58056641 11.78662109 C11.10376633 14.16180694 12.67507164 16.49878137 14.26171875 18.83203125 C14.80908691 19.63850098 15.35645508 20.4449707 15.92041016 21.27587891 C17.00501155 22.86875618 18.09444786 24.45835329 19.18896484 26.04443359 C19.68477051 26.7761377 20.18057617 27.5078418 20.69140625 28.26171875 C21.13685791 28.91100342 21.58230957 29.56028809 22.04125977 30.22924805 C23 32 23 32 23 35 C19.62387424 31.88881684 17.30451486 28.57382728 14.875 24.6875 C14.09383467 23.44574112 13.31122701 22.20488867 12.52734375 20.96484375 C11.91608643 19.99780518 11.91608643 19.99780518 11.29248047 19.01123047 C9.95290369 16.92671338 8.57915944 14.86913446 7.19140625 12.81640625 C6.50232178 11.79703979 6.50232178 11.79703979 5.79931641 10.75708008 C4.9026706 9.43558041 4.00268596 8.11633904 3.09912109 6.79956055 C0 2.21865293 0 2.21865293 0 0 Z " fill="#064242" transform="translate(434,327)"/>
<path d="M0 0 C4.05676492 -0.04954711 8.11341194 -0.085789 12.17041016 -0.10986328 C13.54967315 -0.11990253 14.92891496 -0.13353677 16.30810547 -0.15087891 C18.2938514 -0.17521754 20.2797545 -0.18543255 22.265625 -0.1953125 C24.05661621 -0.21102295 24.05661621 -0.21102295 25.88378906 -0.22705078 C28.85798164 -0.01034762 30.50318379 0.43813878 33 2 C28.94371612 2.19282973 24.887077 2.37145834 20.82958984 2.53710938 C19.45018879 2.59540761 18.07094424 2.65754312 16.69189453 2.72363281 C14.70651227 2.81810666 12.7204313 2.89751548 10.734375 2.9765625 C8.94338379 3.05511475 8.94338379 3.05511475 7.11621094 3.13525391 C4.09338565 3.00405325 2.52131196 2.59901387 0 1 C0 0.67 0 0.34 0 0 Z " fill="#024141" transform="translate(221,469)"/>
<path d="M0 0 C0.66 0 1.32 0 2 0 C3.50655153 2.11821145 4.89124981 4.22692446 6.25 6.4375 C7.05373613 7.72455293 7.85842567 9.01101097 8.6640625 10.296875 C9.05883789 10.92916016 9.45361328 11.56144531 9.86035156 12.21289062 C11.82702454 15.29687652 13.95942234 18.26660816 16.1015625 21.23046875 C16.39804687 21.81441406 16.69453125 22.39835937 17 23 C16.67 23.99 16.34 24.98 16 26 C14.10296153 23.1544423 12.20641591 20.30857536 10.3125 17.4609375 C8.78328057 15.16580799 7.24101277 12.88031209 5.6875 10.6015625 C4.965625 9.53679687 4.24375 8.47203125 3.5 7.375 C2.8296875 6.39273438 2.159375 5.41046875 1.46875 4.3984375 C0 2 0 2 0 0 Z " fill="#054343" transform="translate(409,173)"/>
<path d="M0 0 C0.39421143 0.4844458 0.78842285 0.9688916 1.19458008 1.46801758 C3.52073163 3.44186491 4.8642623 3.42012916 7.88671875 3.51171875 C9.2934082 3.56489258 9.2934082 3.56489258 10.72851562 3.61914062 C11.70498047 3.64169922 12.68144531 3.66425781 13.6875 3.6875 C14.67556641 3.72166016 15.66363281 3.75582031 16.68164062 3.79101562 C19.12098053 3.87350538 21.55996063 3.94265068 24 4 C24 4.33 24 4.66 24 5 C16.08 5.33 8.16 5.66 0 6 C-0.33 4.35 -0.66 2.7 -1 1 C-0.67 0.67 -0.34 0.34 0 0 Z " fill="#056462" transform="translate(526,465)"/>
<path d="M0 0 C2.22111356 2.69706646 4.23582041 5.36760241 6.125 8.3125 C6.74375 9.199375 7.3625 10.08625 8 11 C8.66 11 9.32 11 10 11 C9.67 11.99 9.34 12.98 9 14 C5.41542928 12.80514309 4.85789874 11.77327439 2.8125 8.6875 C2.28269531 7.90761719 1.75289063 7.12773437 1.20703125 6.32421875 C0 4 0 4 0 0 Z " fill="#054E4D" transform="translate(460,249)"/>
<path d="M0 0 C2.9156164 3.54039134 5.50127818 7.1626772 8 11 C7.34 11.66 6.68 12.32 6 13 C4.99193149 11.40089132 3.99379615 9.79551738 3 8.1875 C2.443125 7.29417969 1.88625 6.40085937 1.3125 5.48046875 C0 3 0 3 0 0 Z " fill="#094D4D" transform="translate(356,91)"/>
<path d="M0 0 C0.66 0 1.32 0 2 0 C3.32421875 1.390625 3.32421875 1.390625 4.6875 3.25 C5.14511719 3.85328125 5.60273438 4.4565625 6.07421875 5.078125 C7 7 7 7 6.64453125 9.234375 C6.43183594 9.81703125 6.21914063 10.3996875 6 11 C4.9944239 9.54550599 3.99569565 8.08627557 3 6.625 C2.443125 5.81289062 1.88625 5.00078125 1.3125 4.1640625 C0 2 0 2 0 0 Z " fill="#065050" transform="translate(362,219)"/>
<path d="M0 0 C0.66 0 1.32 0 2 0 C3.2890625 1.75 3.2890625 1.75 4.625 4 C5.07101562 4.7425 5.51703125 5.485 5.9765625 6.25 C6.31429688 6.8275 6.65203125 7.405 7 8 C6.01 8 5.02 8 4 8 C0 2.74285714 0 2.74285714 0 0 Z " fill="#0B4949" transform="translate(378,243)"/>
<path d="M0 0 C2 1 2 1 2 1 Z " fill="#003F3F" transform="translate(302,473)"/>
<path d="" fill="#007F00" transform="translate(0,0)"/>
<path d="M0 0 C2 1 2 1 2 1 Z " fill="#00BF3F" transform="translate(446,351)"/>
<path d="" fill="#00BFBF" transform="translate(0,0)"/>
<path d="M0 0 C2 1 2 1 2 1 Z " fill="#007F00" transform="translate(392,269)"/>
<path d="" fill="#003F3F" transform="translate(0,0)"/>
<path d="" fill="#002A2A" transform="translate(0,0)"/>
<path d="" fill="#007272" transform="translate(0,0)"/>
<path d="" fill="#00FF00" transform="translate(0,0)"/>
<path d="" fill="#00FF00" transform="translate(0,0)"/>
<path d="" fill="#000000" transform="translate(0,0)"/>
<path d="" fill="#000000" transform="translate(0,0)"/>
<path d="" fill="#000000" transform="translate(0,0)"/>
<path d="" fill="#007F7F" transform="translate(0,0)"/>
<path d="" fill="#007F7F" transform="translate(0,0)"/>
<path d="" fill="#00FF00" transform="translate(0,0)"/>
<path d="" fill="#00FF00" transform="translate(0,0)"/>
<path d="" fill="#00FF00" transform="translate(0,0)"/>
<path d="" fill="#007F7F" transform="translate(0,0)"/>
<path d="" fill="#000000" transform="translate(0,0)"/>
<path d="" fill="#00FF00" transform="translate(0,0)"/>
<path d="" fill="#000000" transform="translate(0,0)"/>
<path d="" fill="#007F7F" transform="translate(0,0)"/>
<path d="" fill="#007F7F" transform="translate(0,0)"/>
<path d="" fill="#007F7F" transform="translate(0,0)"/>
<path d="" fill="#00AAAA" transform="translate(0,0)"/>
<path d="" fill="#007F7F" transform="translate(0,0)"/>
<path d="" fill="#000000" transform="translate(0,0)"/>
<path d="" fill="#007F7F" transform="translate(0,0)"/>
<path d="" fill="#007F7F" transform="translate(0,0)"/>
<path d="" fill="#000000" transform="translate(0,0)"/>
<path d="" fill="#00FF00" transform="translate(0,0)"/>
<path d="" fill="#00FF00" transform="translate(0,0)"/>
<path d="" fill="#007F7F" transform="translate(0,0)"/>
<path d="" fill="#00FF00" transform="translate(0,0)"/>
<path d="" fill="#007F7F" transform="translate(0,0)"/>
<path d="" fill="#000000" transform="translate(0,0)"/>
<path d="" fill="#007F7F" transform="translate(0,0)"/>
<path d="" fill="#000000" transform="translate(0,0)"/>
<path d="" fill="#000000" transform="translate(0,0)"/>
<path d="" fill="#007F7F" transform="translate(0,0)"/>
<path d="" fill="#000000" transform="translate(0,0)"/>
<path d="" fill="#000000" transform="translate(0,0)"/>
<path d="" fill="#000000" transform="translate(0,0)"/>
<path d="" fill="#000000" transform="translate(0,0)"/>
<path d="" fill="#00FFFF" transform="translate(0,0)"/>
<path d="" fill="#00FF00" transform="translate(0,0)"/>
<path d="" fill="#007F7F" transform="translate(0,0)"/>
<path d="" fill="#000000" transform="translate(0,0)"/>
<path d="" fill="#005555" transform="translate(0,0)"/>
<path d="" fill="#007F7F" transform="translate(0,0)"/>
<path d="" fill="#000000" transform="translate(0,0)"/>
<path d="" fill="#00FFFF" transform="translate(0,0)"/>
<path d="" fill="#007F7F" transform="translate(0,0)"/>
<path d="" fill="#000000" transform="translate(0,0)"/>
<path d="" fill="#00FF00" transform="translate(0,0)"/>
<path d="" fill="#007F7F" transform="translate(0,0)"/>
<path d="" fill="#007F7F" transform="translate(0,0)"/>
<path d="" fill="#007F7F" transform="translate(0,0)"/>
<path d="" fill="#007F7F" transform="translate(0,0)"/>
<path d="" fill="#00FFFF" transform="translate(0,0)"/>
<path d="" fill="#000000" transform="translate(0,0)"/>
<path d="" fill="#000000" transform="translate(0,0)"/>
<path d="" fill="#00FFFF" transform="translate(0,0)"/>
<path d="" fill="#007F7F" transform="translate(0,0)"/>
<path d="" fill="#007F7F" transform="translate(0,0)"/>
<path d="" fill="#00FF00" transform="translate(0,0)"/>
<path d="" fill="#000000" transform="translate(0,0)"/>
<path d="" fill="#000000" transform="translate(0,0)"/>
<path d="" fill="#007F7F" transform="translate(0,0)"/>
<path d="" fill="#00FFFF" transform="translate(0,0)"/>
<path d="" fill="#00FFFF" transform="translate(0,0)"/>
<path d="" fill="#00FFFF" transform="translate(0,0)"/>
<path d="" fill="#00FF00" transform="translate(0,0)"/>
<path d="" fill="#007F7F" transform="translate(0,0)"/>
<path d="" fill="#007F7F" transform="translate(0,0)"/>
<path d="" fill="#00FFFF" transform="translate(0,0)"/>
<path d="" fill="#007F7F" transform="translate(0,0)"/>
<path d="" fill="#00FFFF" transform="translate(0,0)"/>
<path d="" fill="#00FFFF" transform="translate(0,0)"/>
<path d="" fill="#000000" transform="translate(0,0)"/>
<path d="" fill="#007F7F" transform="translate(0,0)"/>
<path d="" fill="#00FF00" transform="translate(0,0)"/>
<path d="" fill="#00FF00" transform="translate(0,0)"/>
<path d="" fill="#005555" transform="translate(0,0)"/>
<path d="" fill="#00FF00" transform="translate(0,0)"/>
<path d="" fill="#0000FF" transform="translate(0,0)"/>
<path d="" fill="#00AA55" transform="translate(0,0)"/>
<path d="" fill="#000000" transform="translate(0,0)"/>
<path d="" fill="#00FFFF" transform="translate(0,0)"/>
<path d="" fill="#00FFFF" transform="translate(0,0)"/>
<path d="" fill="#00FF00" transform="translate(0,0)"/>
<path d="" fill="#000000" transform="translate(0,0)"/>
<path d="" fill="#000000" transform="translate(0,0)"/>
<path d="" fill="#000000" transform="translate(0,0)"/>
<path d="" fill="#007F7F" transform="translate(0,0)"/>
<path d="" fill="#006666" transform="translate(0,0)"/>
<path d="" fill="#000000" transform="translate(0,0)"/>
<path d="" fill="#007F7F" transform="translate(0,0)"/>
<path d="" fill="#000000" transform="translate(0,0)"/>
<path d="" fill="#000000" transform="translate(0,0)"/>
<path d="" fill="#007F7F" transform="translate(0,0)"/>
<path d="" fill="#000000" transform="translate(0,0)"/>
<path d="" fill="#006666" transform="translate(0,0)"/>
<path d="" fill="#007F7F" transform="translate(0,0)"/>
<path d="" fill="#00FFFF" transform="translate(0,0)"/>
<path d="" fill="#007F7F" transform="translate(0,0)"/>
<path d="" fill="#000000" transform="translate(0,0)"/>
<path d="" fill="#005555" transform="translate(0,0)"/>
<path d="" fill="#000000" transform="translate(0,0)"/>
</svg>
