<?xml version="1.0" encoding="UTF-8"?>
<svg version="1.1" xmlns="http://www.w3.org/2000/svg" width="1024" height="417">
<path d="M0 0 C1.11290405 0.22949341 1.11290405 0.22949341 2.24829102 0.46362305 C5.30591852 1.17300948 7.59737067 1.83191053 9.97265625 3.9296875 C11.31093132 6.87083955 11.37308622 9.27552181 11.4375 12.5 C11.79990296 18.39069545 12.25079183 21.59471999 16 26.1875 C26.29357544 35.0346714 40.62091532 40.59078787 52.73461914 46.53662109 C62.41437217 51.30905826 62.41437217 51.30905826 65 55.1875 C65.2784729 57.39453125 65.2784729 57.39453125 65.31884766 60 C65.33871735 60.97952637 65.35858704 61.95905273 65.37905884 62.96826172 C65.39061005 64.03061035 65.40216125 65.09295898 65.4140625 66.1875 C65.43342865 67.2923877 65.4527948 68.39727539 65.4727478 69.53564453 C65.53257047 73.08618361 65.57877394 76.63676059 65.625 80.1875 C65.66320891 82.51824332 65.70226231 84.84897295 65.7421875 87.1796875 C65.85182352 93.84876039 65.93356419 100.51786598 66 107.1875 C66.01027222 108.16203125 66.02054443 109.1365625 66.03112793 110.140625 C66.05613744 112.78126019 66.07303676 115.42178102 66.0859375 118.0625 C66.0964061 119.20307861 66.0964061 119.20307861 66.10708618 120.36669922 C66.11368549 124.103515 65.90190303 127.55495867 65 131.1875 C64.319375 130.775 63.63875 130.3625 62.9375 129.9375 C37.01312509 114.49319154 12.34665775 107.15443287 -17.76367188 105.42114258 C-20 105.1875 -20 105.1875 -22 104.1875 C-23.09580228 98.87182192 -23.13563802 93.65231133 -23.09375 88.2421875 C-23.09016479 87.31630829 -23.08657959 86.39042908 -23.08288574 85.43649292 C-22.99862418 69.61794573 -22.75342108 53.79976091 -22.53643799 37.98260498 C-22.47503631 33.48320939 -22.4153331 28.98379126 -22.35546875 24.484375 C-22.23860135 15.71872764 -22.11991174 6.95310624 -22 -1.8125 C-15.9600245 -4.83248775 -6.36001501 -1.39718897 0 0 Z " fill="#207060" transform="translate(124,163.8125)"/>
<path d="M0 0 C1.15628906 -0.00386719 1.15628906 -0.00386719 2.3359375 -0.0078125 C4.5578189 0.12110212 6.49118508 0.51116283 8.625 1.125 C8.625 1.785 8.625 2.445 8.625 3.125 C10.43677734 3.681875 10.43677734 3.681875 12.28515625 4.25 C18.10888465 6.19389219 23.6367131 8.72656737 29.21450806 11.27957153 C32.40119633 12.7374334 35.59459254 14.18037733 38.7890625 15.62109375 C39.76414513 16.06091835 39.76414513 16.06091835 40.75892639 16.5096283 C48.49648347 19.98578646 56.3150452 23.26695456 64.14819336 26.52148438 C80.16605543 33.20711086 80.16605543 33.20711086 81.625 36.125 C82 39.0625 82 39.0625 81.625 42.125 C80.80306152 42.5379834 79.98112305 42.9509668 79.13427734 43.37646484 C76.27645442 44.93085393 76.27645442 44.93085393 76.04150391 48.29541016 C76.06132324 49.57206543 76.08114258 50.8487207 76.1015625 52.1640625 C76.10626556 52.84552338 76.11096863 53.52698425 76.11581421 54.22909546 C76.13715432 56.40376145 76.1937755 58.57598582 76.25 60.75 C76.26650636 62.22133129 76.28085463 63.69268849 76.29296875 65.1640625 C75.73764389 71.63982373 75.73764389 71.63982373 77.625 77.125 C78.08433014 84.12978469 78.08433014 84.12978469 76.5 87.5625 C73.83893887 89.78005094 72.0776481 90.125 68.625 90.125 C65.8125 88.625 65.8125 88.625 63.625 86.125 C62.8125 82.375 62.8125 82.375 62.625 79.125 C63.285 78.795 63.945 78.465 64.625 78.125 C65.6842918 74.94712459 65.73958939 72.69911057 65.72265625 69.36328125 C65.71943359 68.24501953 65.71621094 67.12675781 65.71289062 65.97460938 C65.70451172 64.80736328 65.69613281 63.64011719 65.6875 62.4375 C65.68073242 60.66922852 65.68073242 60.66922852 65.67382812 58.86523438 C65.66203273 55.95177211 65.6455727 53.03841137 65.625 50.125 C64.59318604 50.60332275 63.56137207 51.08164551 62.49829102 51.57446289 C58.58410286 53.38780829 54.66771873 55.19636995 50.75073242 57.00366211 C49.07176622 57.77909854 47.39335878 58.55574622 45.71557617 59.33374023 C35.06437215 64.27153245 24.35969688 68.983039 13.46894836 73.36820984 C11.57993485 74.14349556 9.70932702 74.95465421 7.83837891 75.77246094 C-0.31288826 79.20340001 -5.53364509 77.28600439 -13.375 74.125 C-20.43351338 71.21586499 -27.40561545 68.11108469 -34.38104248 65.00939941 C-36.58986163 64.02970033 -38.80085296 63.05501824 -41.01220703 62.08105469 C-45.25985557 60.21007535 -49.50431063 58.33200525 -53.74688721 56.44955444 C-55.44475861 55.69707448 -57.14343828 54.94641536 -58.84295654 54.19766235 C-61.26126539 53.13119154 -63.67589556 52.05676706 -66.08984375 50.98046875 C-67.16529198 50.50895889 -67.16529198 50.50895889 -68.26246643 50.02792358 C-73.1705924 47.82640508 -78.11386514 45.44286523 -82.375 42.125 C-83.25 39.625 -83.25 39.625 -82.375 37.125 C-77.94422381 32.89287292 -73.44786406 30.52364213 -67.83984375 28.15625 C-67.01582062 27.7985704 -66.19179749 27.44089081 -65.34280396 27.07237244 C-62.66984196 25.91420158 -59.99124734 24.76971713 -57.3125 23.625 C-55.46816598 22.82806655 -53.62433745 22.02996227 -51.78100586 21.23071289 C-48.99522438 20.0228829 -46.20920475 18.81565812 -43.42158508 17.61207581 C-35.06080797 14.00104448 -26.74219653 10.30036508 -18.4375 6.5625 C-17.21934965 6.0155582 -16.00117032 5.46868095 -14.78295898 4.921875 C-3.80736651 -0.01264906 -3.80736651 -0.01264906 0 0 Z " fill="#207060" transform="translate(193.375,85.875)"/>
<path d="M0 0 C0.598125 0.350625 1.19625 0.70125 1.8125 1.0625 C1.4825 1.3925 1.1525 1.7225 0.8125 2.0625 C0.72254804 4.97812829 0.6976032 7.86992541 0.71484375 10.78564453 C0.71630402 11.70113571 0.71776428 12.61662689 0.7192688 13.55986023 C0.72308549 15.55587422 0.72921316 17.55188478 0.73733521 19.54788589 C0.75005411 22.70875982 0.75660365 25.86959195 0.76147461 29.03048706 C0.77487761 36.88759502 0.79899811 44.74466373 0.82287598 52.60174561 C0.84262586 59.22783053 0.85826414 65.85390041 0.86843872 72.48000717 C0.87491154 75.59030586 0.88742428 78.70054304 0.90014648 81.81082153 C0.90378116 83.72820991 0.90713262 85.64559885 0.91015625 87.56298828 C0.91532257 88.42457047 0.92048889 89.28615265 0.92581177 90.17384338 C0.92622546 94.91263377 0.60673769 99.38889412 -0.1875 104.0625 C-3.02416093 104.87969434 -5.44518361 105.15490419 -8.390625 105.0546875 C-19.44721396 104.79547976 -29.42643023 105.55392818 -40.1875 108.0625 C-41.68410156 108.35253906 -41.68410156 108.35253906 -43.2109375 108.6484375 C-57.31545239 111.6239105 -76.29049085 119.15901535 -86.1875 130.0625 C-88.1875 128.0625 -88.1875 128.0625 -88.39868164 125.78759766 C-88.38184326 124.85995605 -88.36500488 123.93231445 -88.34765625 122.9765625 C-88.33669922 121.96335937 -88.32574219 120.95015625 -88.31445312 119.90625 C-88.29318359 118.8440625 -88.27191406 117.781875 -88.25 116.6875 C-88.21548959 114.59642449 -88.18536752 112.5052708 -88.16015625 110.4140625 C-88.14218994 109.48416504 -88.12422363 108.55426758 -88.10571289 107.59619141 C-88.18147478 105.24915589 -88.51696885 103.30373642 -89.1875 101.0625 C-88.5275 101.0625 -87.8675 101.0625 -87.1875 101.0625 C-87.8475 98.4225 -88.5075 95.7825 -89.1875 93.0625 C-88.5275 93.0625 -87.8675 93.0625 -87.1875 93.0625 C-87.5175 92.0725 -87.8475 91.0825 -88.1875 90.0625 C-88.30791376 87.54676457 -88.37554884 85.05952716 -88.390625 82.54296875 C-88.39632507 81.80677811 -88.40202515 81.07058746 -88.40789795 80.31208801 C-88.41733756 78.75454134 -88.42387781 77.1969748 -88.42773438 75.6394043 C-88.43742231 73.26900914 -88.46844675 70.89948797 -88.5 68.52929688 C-88.50653241 67.01302596 -88.51178195 65.49674887 -88.515625 63.98046875 C-88.5279718 63.27713913 -88.5403186 62.57380951 -88.55303955 61.84916687 C-88.53214138 57.1796529 -87.69018234 54.00501232 -85.1875 50.0625 C-83.63012695 48.62451172 -83.63012695 48.62451172 -81.86328125 47.6171875 C-81.15768066 47.21338867 -80.45208008 46.80958984 -79.72509766 46.39355469 C-73.72099466 43.24420222 -67.63973029 40.25714018 -61.54077148 37.29736328 C-45.54301501 30.57277773 -45.54301501 30.57277773 -34.82421875 18.0625 C-34.61410156 17.4025 -34.40398437 16.7425 -34.1875 16.0625 C-33.85685547 15.0415625 -33.85685547 15.0415625 -33.51953125 14 C-33.02909293 12.36739997 -32.60094411 10.71627646 -32.1875 9.0625 C-30.8675 9.0625 -29.5475 9.0625 -28.1875 9.0625 C-27.465625 9.908125 -26.74375 10.75375 -26 11.625 C-23.53325339 14.23592532 -23.53325339 14.23592532 -21.04296875 14.27734375 C-16.55144454 13.86766907 -12.53456197 13.21830129 -9.1875 10.0625 C-8.02188678 7.49141812 -7.05835857 4.92485582 -6.1796875 2.2421875 C-5.85226562 1.52289063 -5.52484375 0.80359375 -5.1875 0.0625 C-2.1875 -0.9375 -2.1875 -0.9375 0 0 Z " fill="#207060" transform="translate(284.1875,165.9375)"/>
<path d="M0 0 C1.32 0.66 2.64 1.32 4 2 C4.02318254 15.1782497 4.04094526 28.35649453 4.05181217 41.53476048 C4.05702805 47.65412174 4.06410221 53.77346904 4.07543945 59.89282227 C4.08631431 65.79964777 4.09228661 71.70645986 4.09487724 77.6132946 C4.09672319 79.86550037 4.10032785 82.11770542 4.10573006 84.36990547 C4.11300147 87.52730007 4.11398836 90.68463938 4.11352539 93.84204102 C4.11712067 94.77064941 4.12071594 95.69925781 4.12442017 96.65600586 C4.11667296 101.54704701 3.8295912 106.1778005 3 111 C-0.3161619 112.1053873 -2.88536635 112.16753642 -6.375 112.1875 C-7.49648438 112.20167969 -8.61796875 112.21585937 -9.7734375 112.23046875 C-13.13533202 111.99033343 -15.09961395 111.7077931 -18 110 C-19.72568389 107.8296433 -21.17374056 105.77767445 -22.625 103.4375 C-23.05321045 102.77129639 -23.4814209 102.10509277 -23.92260742 101.41870117 C-24.83219514 100.00164364 -25.73628729 98.58104569 -26.63525391 97.15722656 C-28.38926387 94.38469848 -30.17783103 91.63537693 -31.96630859 88.88500977 C-33.34268024 86.76603644 -34.71300873 84.64325907 -36.08203125 82.51953125 C-39.20908334 77.67169428 -42.35408974 72.83561269 -45.5 68 C-47.66701886 64.66689553 -49.8335635 61.33348301 -52 58 C-52.53818359 57.17209961 -53.07636719 56.34419922 -53.63085938 55.49121094 C-55.1717105 53.11987672 -56.71107946 50.74758742 -58.25 48.375 C-58.71599609 47.65828125 -59.18199219 46.9415625 -59.66210938 46.203125 C-62.88537355 41.2292529 -62.88537355 41.2292529 -64 39 C-64.33 63.09 -64.66 87.18 -65 112 C-83 112 -83 112 -86 111 C-86 75.36 -86 39.72 -86 3 C-81.17695933 1.39231978 -78.32265402 0.66054914 -73.4375 0.5625 C-72.34308594 0.52253906 -71.24867188 0.48257813 -70.12109375 0.44140625 C-64.8125089 1.39150341 -62.74413124 4.96888299 -59.7109375 9.171875 C-58.92605249 10.3604868 -58.14770806 11.55343627 -57.375 12.75 C-56.94823975 13.40049316 -56.52147949 14.05098633 -56.08178711 14.72119141 C-54.71445946 16.80982601 -53.3564674 18.90429885 -52 21 C-51.09772491 22.38806547 -50.19538122 23.77608634 -49.29296875 25.1640625 C-46.98550245 28.71923304 -44.68709665 32.28017927 -42.39111328 35.84277344 C-40.09846741 39.39802422 -37.79893446 42.94881375 -35.5 46.5 C-32.64374633 50.91355522 -29.78809103 55.3274961 -26.93359375 59.7421875 C-26.43214844 60.51755859 -25.93070313 61.29292969 -25.4140625 62.09179688 C-24.45165248 63.57996792 -23.48940493 65.06824404 -22.52734375 66.55664062 C-22.09421875 67.22630859 -21.66109375 67.89597656 -21.21484375 68.5859375 C-20.83448975 69.1742334 -20.45413574 69.7625293 -20.06225586 70.36865234 C-19.05237388 71.9195674 -18.02659993 73.4601001 -17 75 C-17.00222061 74.1296965 -17.00444122 73.25939301 -17.00672913 72.36271667 C-17.02675408 64.16676017 -17.04198542 55.97081187 -17.05181217 47.77483654 C-17.057034 43.56106206 -17.06411899 39.34730778 -17.07543945 35.13354492 C-17.08629315 31.06815199 -17.09228212 27.0027785 -17.09487724 22.93737221 C-17.096727 21.38521328 -17.10033904 19.83305544 -17.10573006 18.28090477 C-17.1129734 16.10936547 -17.11398954 13.93790683 -17.11352539 11.76635742 C-17.115746 10.52947678 -17.11796661 9.29259613 -17.12025452 8.01823425 C-17 5 -17 5 -16 2 C-10.31302429 1.08602176 -5.68697571 1.08602176 0 2 C0 1.34 0 0.68 0 0 Z " fill="#227261" transform="translate(720,151)"/>
<path d="M0 0 C0.69867187 0.16757813 1.39734375 0.33515625 2.1171875 0.5078125 C6.19296576 1.20367708 10.13966733 0.91677221 14.2578125 0.7421875 C17 1 17 1 18.57551575 2.21369934 C20.30515357 4.38266203 20.83729491 6.155522 21.53393555 8.83862305 C21.92400032 10.30980843 21.92400032 10.30980843 22.32194519 11.81071472 C22.59082047 12.86704605 22.85969574 13.92337738 23.13671875 15.01171875 C23.42102249 16.09508011 23.70532623 17.17844147 23.99824524 18.29463196 C24.90435363 21.75647785 25.79607185 25.2218481 26.6875 28.6875 C27.29918636 31.03475137 27.91180515 33.38175997 28.52539062 35.72851562 C30.0277593 41.48290341 31.51832922 47.24025024 33 53 C35.24786559 50.75213441 35.60169399 49.51965081 36.46459961 46.50610352 C36.735056 45.57496231 37.00551239 44.64382111 37.28416443 43.6844635 C37.5706636 42.67612961 37.85716278 41.66779572 38.15234375 40.62890625 C38.77002767 38.50711644 39.38787114 36.38537307 40.00585938 34.26367188 C40.97454602 30.90905026 41.94006337 27.55355643 42.90209961 24.19702148 C43.83141836 20.96352421 44.77250639 17.7336293 45.71484375 14.50390625 C46.14155617 12.99444176 46.14155617 12.99444176 46.57688904 11.45448303 C46.85049759 10.52018967 47.12410614 9.5858963 47.40600586 8.62329102 C47.64202011 7.80103531 47.87803436 6.9787796 48.12120056 6.13160706 C49.09191368 3.77705511 49.99185172 2.5556013 52 1 C55.03125 0.671875 55.03125 0.671875 58.5 0.75 C60.21703125 0.77320313 60.21703125 0.77320313 61.96875 0.796875 C65 1 65 1 68 2 C68.9272909 4.41613994 69.64675301 6.7001395 70.3046875 9.19140625 C70.51054474 9.9289061 70.71640198 10.66640594 70.92849731 11.42625427 C71.5891984 13.80190857 72.23266706 16.18182042 72.875 18.5625 C73.72214924 21.64835904 74.5757065 24.73243176 75.4296875 27.81640625 C75.74398712 28.95645615 75.74398712 28.95645615 76.06463623 30.11953735 C77.54801904 35.46873364 79.1134676 40.78791774 80.7578125 46.08984375 C80.96808075 46.77333389 81.178349 47.45682404 81.39498901 48.161026 C82.2260746 51.33775996 82.2260746 51.33775996 84 54 C85.28793921 49.09030265 86.56950302 44.17900196 87.84521484 39.26611328 C88.27999305 37.59541074 88.71650291 35.92515783 89.15478516 34.25537109 C89.78484764 31.85370435 90.40864319 29.45048382 91.03125 27.046875 C91.22811401 26.30193787 91.42497803 25.55700073 91.62780762 24.78948975 C92.50537055 21.37821644 93 18.54979742 93 15 C93.66 15 94.32 15 95 15 C95.103125 13.989375 95.20625 12.97875 95.3125 11.9375 C96.03704767 7.78781792 97.22269266 4.78643737 99 1 C101.41674224 0.97294692 103.8331794 0.95313562 106.25 0.9375 C106.93191406 0.92912109 107.61382813 0.92074219 108.31640625 0.91210938 C111.72731171 0.89555158 114.72148706 1.08543413 118 2 C116.33367542 11.47424546 113.63777382 20.59357772 110.9375 29.8125 C110.44667254 31.49795867 109.95586876 33.18342424 109.46508789 34.86889648 C106.37250126 45.45912274 103.20154141 56.02388182 99.9375 66.5625 C99.56810303 67.75528564 99.19870605 68.94807129 98.81811523 70.17700195 C94.71860483 83.28139517 94.71860483 83.28139517 93 85 C90.36424457 85.10024126 87.76045755 85.13875021 85.125 85.125 C84.02478516 85.13080078 84.02478516 85.13080078 82.90234375 85.13671875 C79.67566762 85.13084138 77.08156579 85.0271886 74 84 C72.8879862 81.32630562 71.97436765 78.75774982 71.125 76 C70.86960449 75.20070068 70.61420898 74.40140137 70.35107422 73.57788086 C69.55191698 71.05645319 68.77335976 68.52944991 68 66 C67.74863281 65.18547363 67.49726562 64.37094727 67.23828125 63.53173828 C66.52526828 61.21114516 65.82193131 58.88796971 65.125 56.5625 C64.9098877 55.84771484 64.69477539 55.13292969 64.47314453 54.39648438 C63.62336505 51.49219255 63 49.04361085 63 46 C62.01 45.505 62.01 45.505 61 45 C60.3671875 42.93359375 60.3671875 42.93359375 59.875 40.4375 C59.70742188 39.61121094 59.53984375 38.78492188 59.3671875 37.93359375 C59.24601563 37.29550781 59.12484375 36.65742188 59 36 C57.21626068 38.67560899 56.42751504 40.44562471 55.51953125 43.45556641 C55.24584717 44.35304596 54.97216309 45.25052551 54.69018555 46.17520142 C54.2557312 47.62375015 54.2557312 47.62375015 53.8125 49.1015625 C53.19024121 51.13806271 52.56784113 53.17451976 51.9453125 55.2109375 C50.96838715 58.42759483 49.99396769 61.64498314 49.02246094 64.86328125 C48.0840079 67.96557405 47.13628321 71.06491623 46.1875 74.1640625 C45.75304565 75.61868393 45.75304565 75.61868393 45.30981445 77.10269165 C45.03613037 77.99386688 44.76244629 78.88504211 44.48046875 79.80322266 C44.12311646 80.98544907 44.12311646 80.98544907 43.75854492 82.19155884 C43 84 43 84 41 85 C39.62451844 85.08308638 38.24514204 85.10736016 36.8671875 85.09765625 C36.06152344 85.09443359 35.25585938 85.09121094 34.42578125 85.08789062 C33.16314453 85.07532227 33.16314453 85.07532227 31.875 85.0625 C31.02550781 85.05798828 30.17601562 85.05347656 29.30078125 85.04882812 C27.20049091 85.03702874 25.1002367 85.01909306 23 85 C20.53341045 78.66453239 18.58782973 72.29699552 16.80664062 65.74023438 C16.26121382 63.80986805 15.6368563 61.90216156 15 60 C14.34 59.67 13.68 59.34 13 59 C12.76185623 56.86518278 12.53048738 54.72936282 12.33575439 52.59014893 C11.76933673 48.22056766 10.37672814 44.14139156 9.0234375 39.9609375 C8.42935928 38.06260268 7.8356193 36.16416199 7.2421875 34.265625 C6.30799243 31.31045787 5.36919807 28.35688535 4.42382812 25.40527344 C3.50697947 22.53178208 2.60803298 19.65314633 1.7109375 16.7734375 C1.42455414 15.89722748 1.13817078 15.02101746 0.84310913 14.11825562 C-0.76099873 8.93184335 -1.23086012 5.31218039 0 0 Z " fill="#216F5E" transform="translate(822,178)"/>
<path d="M0 0 C10.52859795 9.79314441 13.87297869 20.32237465 14.75390625 34.36328125 C14.90940687 37.10605185 14.90940687 37.10605185 16 40 C15.34 40 14.68 40 14 40 C14 40.99 14 41.98 14 43 C-5.32237188 44.28357393 -24.64656353 44.10026089 -44 44 C-43.40639242 45.77310131 -42.79968692 47.54182116 -42.1875 49.30859375 C-41.85105469 50.29400146 -41.51460938 51.27940918 -41.16796875 52.29467773 C-39.00160133 57.31255345 -34.98657766 59.94878366 -30 62 C-22.8746855 62.89537682 -16.73357593 62.84335549 -10.78125 58.58203125 C-8.81395721 56.9216847 -8.81395721 56.9216847 -6.80078125 54.28125 C-4 52 -4 52 -0.01171875 51.94921875 C1.43422103 52.16710009 2.87602862 52.41406979 4.3125 52.6875 C5.05306641 52.80544922 5.79363281 52.92339844 6.55664062 53.04492188 C8.37530728 53.33825521 10.18840126 53.66578026 12 54 C13 57 13 57 12.06640625 59.453125 C7.16429503 68.56977859 0.9866564 75.52638038 -9 79 C-21.14222279 82.21463164 -33.67728026 81.66135987 -45 76 C-55.26483854 69.81477678 -61.67598007 60.31244605 -64.5546875 48.77734375 C-66.19168762 38.56763245 -65.71701105 27.67066512 -62 18 C-61.73316406 17.29746094 -61.46632813 16.59492188 -61.19140625 15.87109375 C-56.78744324 5.86920442 -48.9898945 -0.88405185 -39 -5 C-26.47988475 -8.87973631 -10.8894547 -7.84948193 0 0 Z M-35 13 C-38.45991471 15.92170575 -41.01271859 18.92084342 -43 23 C-43 24.32 -43 25.64 -43 27 C-42.34 27 -41.68 27 -41 27 C-40.67 27.66 -40.34 28.32 -40 29 C-29.11 29 -18.22 29 -7 29 C-5.73752582 27.02131339 -5.73752582 27.02131339 -6.56640625 24.79296875 C-8.80649695 18.93359426 -10.57309838 15.29870491 -16 12 C-19.56206661 11.18129815 -19.56206661 11.18129815 -23 11 C-23.97259766 10.70996094 -23.97259766 10.70996094 -24.96484375 10.4140625 C-28.65695762 9.66288386 -31.74801094 11.31570288 -35 13 Z " fill="#217160" transform="translate(463,184)"/>
<path d="M0 0 C7.14577746 6.2967742 10.02445543 13.38205739 10.97265625 22.73828125 C11.19698435 26.87837154 11.29944822 31.01920853 11.39453125 35.1640625 C11.42242737 36.34800095 11.45032349 37.53193939 11.47906494 38.75175476 C11.5352674 41.24370886 11.58890681 43.73572192 11.64013672 46.2277832 C11.72275418 50.05531841 11.82615509 53.8819653 11.9296875 57.70898438 C11.98175649 60.13148308 12.03258146 62.55400891 12.08203125 64.9765625 C12.11625183 66.12546463 12.15047241 67.27436676 12.18572998 68.45808411 C12.20274963 69.51645981 12.21976929 70.57483551 12.23730469 71.6652832 C12.25871521 72.59903275 12.28012573 73.53278229 12.30218506 74.49482727 C12.19344055 75.23516708 12.08469604 75.9755069 11.97265625 76.73828125 C8.34919556 79.15392171 5.65661643 79.03609794 1.47265625 78.98828125 C0.79589844 78.99601562 0.11914062 79.00375 -0.578125 79.01171875 C-4.27653632 78.99712936 -5.87337712 78.84092567 -9.02734375 76.73828125 C-9.35734375 75.74828125 -9.68734375 74.75828125 -10.02734375 73.73828125 C-13.13236687 73.43992987 -13.13236687 73.43992987 -15.46484375 75.55078125 C-22.61616022 80.49490128 -31.70119958 81.40270642 -40.1328125 80.375 C-47.81915704 78.68421166 -53.69020422 75.30970478 -58.02734375 68.73828125 C-61.87474873 62.10482439 -62.18100443 54.82107611 -60.48828125 47.36328125 C-58.01453005 40.18668435 -54.20798803 36.27474888 -47.6171875 32.8671875 C-36.3831661 27.97030638 -22.26244074 26.42206602 -10.02734375 26.73828125 C-10.73475116 19.50648961 -10.73475116 19.50648961 -14.65234375 13.67578125 C-21.95661085 9.48259088 -28.21336598 10.80079906 -36.02734375 12.73828125 C-36.02734375 13.39828125 -36.02734375 14.05828125 -36.02734375 14.73828125 C-36.68734375 14.73828125 -37.34734375 14.73828125 -38.02734375 14.73828125 C-38.27484375 15.68703125 -38.52234375 16.63578125 -38.77734375 17.61328125 C-40.02734375 20.73828125 -40.02734375 20.73828125 -41.58984375 22.01953125 C-45.28890437 23.1102799 -48.6031431 22.1682298 -52.27734375 21.36328125 C-53.02242188 21.21117187 -53.7675 21.0590625 -54.53515625 20.90234375 C-56.36838252 20.52629734 -58.19823685 20.13387879 -60.02734375 19.73828125 C-59.29107541 11.69856947 -57.10267304 6.60354202 -51.1328125 0.94140625 C-37.01766624 -10.30616592 -14.56674774 -10.65408228 0 0 Z M-38.40234375 47.98828125 C-40.52940508 51.5879235 -40.68919589 53.62009015 -40.02734375 57.73828125 C-37.48597216 60.8978243 -35.88111716 62.45369011 -32.02734375 63.73828125 C-25.33861593 64.19175432 -19.70535176 63.51473849 -14.2265625 59.37890625 C-11.03036571 56.41918225 -9.23591681 54.22260207 -9.02734375 49.73828125 C-8.97155696 46.73593769 -8.96847586 43.74054386 -9.02734375 40.73828125 C-19.14567638 40.34148389 -30.73914494 40.72840869 -38.40234375 47.98828125 Z " fill="#227160" transform="translate(547.02734375,184.26171875)"/>
<path d="M0 0 C8.88575639 8.36059348 12.89690363 20.26697133 13.3125 32.25 C13.0164177 45.46267253 8.79856544 56.52458765 -0.12109375 66.21484375 C-8.2684565 73.95568529 -18.92085832 77.04479437 -30 77 C-34.04516782 76.53403763 -38.00489367 75.7757488 -42 75 C-44.6636104 74.62241578 -47.32727917 74.30839086 -50 74 C-50.33 73.01 -50.66 72.02 -51 71 C-52.75810669 69.4368721 -52.75810669 69.4368721 -54.875 68 C-59.25147399 64.8993247 -62.15007187 61.95883983 -65.0625 57.4375 C-66.61527798 55.03128679 -67.97124564 53.02875436 -70 51 C-69.34 51 -68.68 51 -68 51 C-68.2165625 50.0821875 -68.433125 49.164375 -68.65625 48.21875 C-71.81895454 34.27942258 -72.38223986 20.73264773 -64.43359375 8.01953125 C-56.86140153 -2.64756242 -48.30961287 -8.23438377 -35.375 -10.6875 C-21.93826045 -12.09367042 -10.09801853 -9.02932974 0 0 Z M-42.6875 11.5625 C-47.64398163 16.78689955 -50.62728903 23.43867175 -51.07421875 30.640625 C-50.81393646 38.91486196 -49.16743471 46.31892723 -43.6875 52.6875 C-37.97224024 57.60528166 -33.39414195 58.57487338 -25.96875 58.3359375 C-20.50979458 57.7182136 -16.90313838 56.16227106 -13.25 52.01171875 C-7.39707406 43.86545885 -6.47641646 37.01600212 -7.4609375 27.125 C-8.63635027 20.31101294 -11.6419091 15.42042499 -17 11 C-19.14733927 10.29485154 -19.14733927 10.29485154 -21 10 C-21.33 9.34 -21.66 8.68 -22 8 C-29.96232896 5.93569249 -35.7978768 7.55690512 -42.6875 11.5625 Z " fill="#21705F" transform="translate(806,188)"/>
<path d="M0 0 C7.76605384 2.40990805 15.10887628 5.56806438 22.53515625 8.859375 C23.87126953 9.44332031 23.87126953 9.44332031 25.234375 10.0390625 C26.03069336 10.39178223 26.82701172 10.74450195 27.64746094 11.10791016 C30.08535472 12.03236677 32.43405578 12.56020513 35 13 C35 13.66 35 14.32 35 15 C53.26044245 21.06139948 65.57881234 15.8982282 82.5625 8.375 C83.91444112 7.78323142 85.26665373 7.19208265 86.61914062 6.6015625 C93.0085631 3.86894457 93.0085631 3.86894457 99.23413086 0.79541016 C101.72801424 -0.32792346 103.429727 0.28603528 106 1 C105.34 1.33 104.68 1.66 104 2 C104.01571045 2.71542969 104.0314209 3.43085938 104.04760742 4.16796875 C104.11040747 7.44523039 104.14913303 10.7223649 104.1875 14 C104.21263672 15.12535156 104.23777344 16.25070313 104.26367188 17.41015625 C104.38713004 31.48438708 104.38713004 31.48438708 99.45532227 36.60327148 C93.83432965 41.16716219 87.15415631 44.04334956 80.625 47.0625 C78.47100672 48.07347882 76.31735652 49.08518893 74.1640625 50.09765625 C73.12797852 50.58121582 72.09189453 51.06477539 71.02441406 51.56298828 C67.35496482 53.30648023 63.73919572 55.14451647 60.13427734 57.01733398 C55.35523267 59.2177063 50.11024855 60.11659855 45.03466797 58.29443359 C42.96068054 57.32428574 40.94934045 56.28051703 38.9375 55.1875 C38.25623047 54.83107422 37.57496094 54.47464844 36.87304688 54.10742188 C35.53718344 53.40805053 34.20375666 52.70400129 32.87304688 51.99487305 C27.1686605 48.88519271 27.1686605 48.88519271 21 47 C21 46.34 21 45.68 21 45 C20.195625 44.773125 19.39125 44.54625 18.5625 44.3125 C12.02138528 41.90261563 5.74131123 39.13575042 2 33 C0.30003716 28.68623916 -0.2393542 25.13219075 -0.1953125 20.5078125 C-0.18886719 19.30898437 -0.18242187 18.11015625 -0.17578125 16.875 C-0.15902344 15.6375 -0.14226562 14.4 -0.125 13.125 C-0.11597656 11.86429688 -0.10695312 10.60359375 -0.09765625 9.3046875 C-0.07415808 6.2029296 -0.04130334 3.10156348 0 0 Z " fill="#207061" transform="translate(141,150)"/>
<path d="M0 0 C6.15234375 0.5859375 6.15234375 0.5859375 8 1 C9.63019353 4.26038706 9.15321283 7.8576909 9.15771484 11.44116211 C9.16533592 12.7511039 9.16533592 12.7511039 9.17311096 14.08750916 C9.18382615 15.98746163 9.19244181 17.88742682 9.19923019 19.78739738 C9.21099446 22.79189081 9.23043999 25.79623888 9.25234985 28.80067444 C9.31405563 37.34419952 9.36806568 45.88770978 9.40136719 54.43139648 C9.42227218 59.6533577 9.45754082 64.87505432 9.50212479 70.0968647 C9.51631757 72.08998062 9.52501458 74.08314336 9.52817917 76.0763073 C9.533069 78.86096912 9.55617631 81.64492429 9.58349609 84.42944336 C9.58048996 85.25708191 9.57748383 86.08472046 9.5743866 86.93743896 C9.51240889 91.12442958 9.51240889 91.12442958 11.39754677 94.69399357 C16.73134729 99.04106445 26.89205209 98.32710964 33.5625 99 C51.03578772 100.77328754 67.25945448 105.07934137 83 113 C84.52560547 113.74443359 84.52560547 113.74443359 86.08203125 114.50390625 C92.04859284 117.43740187 97.82969037 120.56718923 103.52734375 123.99609375 C106.57819277 125.23474809 107.85803816 124.8523172 111 124 C113.1045848 122.99704955 113.1045848 122.99704955 115.1171875 121.70703125 C115.88144043 121.24433838 116.64569336 120.78164551 117.43310547 120.30493164 C118.23893066 119.8124292 119.04475586 119.31992676 119.875 118.8125 C128.04061056 113.95961989 136.02087208 110.11087896 145 107 C146.07378906 106.62359375 147.14757812 106.2471875 148.25390625 105.859375 C160.18481213 101.93608325 172.1909678 99.91108136 184.6875 99.125 C185.53707275 99.06352783 186.38664551 99.00205566 187.26196289 98.9387207 C191.9747463 98.70976148 195.28173368 98.69985199 199 102 C199.54886514 106.39092112 199.47666082 108.28500878 197 112 C194.0168457 112.52075195 194.0168457 112.52075195 190.17578125 112.73828125 C188.75116217 112.83269838 187.32660363 112.92803237 185.90209961 113.02416992 C185.15298309 113.07028412 184.40386658 113.11639832 183.63204956 113.16390991 C158.08218366 114.80063149 135.31591231 120.43309255 113.80859375 134.75 C110.02148186 136.43550181 107.01294979 136.84125585 103 136 C98.82841523 134.23956955 94.93910357 132.03732531 91 129.8125 C75.84888788 121.27743309 75.84888788 121.27743309 59 118 C59 117.34 59 116.68 59 116 C57.2984375 115.814375 57.2984375 115.814375 55.5625 115.625 C52.36040075 115.27540372 49.16379312 114.89658634 45.96875 114.48828125 C45.24486084 114.39788574 44.52097168 114.30749023 43.77514648 114.21435547 C42.33914186 114.03467664 40.90370494 113.85037771 39.46899414 113.66064453 C29.0488852 112.37288898 18.98424454 113.27484625 8.59570312 114.46484375 C7.18901367 114.60986328 7.18901367 114.60986328 5.75390625 114.7578125 C4.91158447 114.8520752 4.0692627 114.94633789 3.20141602 115.04345703 C1 115 1 115 -2 113 C-2.50716972 110.97547913 -2.50716972 110.97547913 -2.67941284 108.51196289 C-2.74370358 107.61196564 -2.80799431 106.71196838 -2.87423325 105.78469849 C-3.06971895 101.45629916 -3.13928605 97.14115339 -3.12939453 92.80859375 C-3.13114685 91.84474258 -3.13289917 90.88089142 -3.13470459 89.88783264 C-3.13906632 86.73770285 -3.13620717 83.58763025 -3.1328125 80.4375 C-3.13348673 78.23697906 -3.13445775 76.03645819 -3.13571167 73.8359375 C-3.13718055 69.24331955 -3.13505851 64.65072114 -3.13037109 60.05810547 C-3.12464731 54.16209883 -3.12797459 48.26613746 -3.13394356 42.37013245 C-3.13754812 37.83554744 -3.13641154 33.30097326 -3.13381577 28.76638794 C-3.1331476 26.59099319 -3.13397109 24.41559747 -3.13629532 22.24020386 C-3.138823 19.21219245 -3.13498081 16.18425581 -3.12939453 13.15625 C-3.13141876 12.25342789 -3.13344299 11.35060577 -3.13552856 10.42042542 C-3.11426952 4.22853904 -3.11426952 4.22853904 -2 2 C-1.34 2 -0.68 2 0 2 C0 1.34 0 0.68 0 0 Z " fill="#226F5F" transform="translate(86,177)"/>
<path d="M0 0 C1.40185547 -0.00386719 1.40185547 -0.00386719 2.83203125 -0.0078125 C5.1875 0.125 5.1875 0.125 7.1875 1.125 C7.1875 30.825 7.1875 60.525 7.1875 91.125 C21.3775 91.125 35.5675 91.125 50.1875 91.125 C50.8475 91.455 51.5075 91.785 52.1875 92.125 C52.1875 98.065 52.1875 104.005 52.1875 110.125 C40.46752778 110.86669588 28.83063063 111.28581203 17.08862305 111.25537109 C14.59482949 111.24993422 12.10121059 111.25540105 9.60742188 111.26171875 C7.98697878 111.26105896 6.36653579 111.25977985 4.74609375 111.2578125 C4.01780869 111.25983673 3.28952362 111.26186096 2.53916931 111.26394653 C-2.70543549 111.24039726 -7.52849863 110.71211126 -12.8125 110.125 C-12.8125 74.155 -12.8125 38.185 -12.8125 1.125 C-8.29107872 0.47908267 -4.46855719 -0.01249946 0 0 Z " fill="#21705F" transform="translate(340.8125,151.875)"/>
<path d="M0 0 C-0.33 6.6 -0.66 13.2 -1 20 C-8.5625 19.8125 -8.5625 19.8125 -10.90063477 19.72973633 C-17.38251777 19.65291523 -21.96020656 21.09619279 -26.8125 25.625 C-31.66541866 32.09101278 -31.31885223 40.9923214 -31.4140625 48.72265625 C-31.43342865 49.70874374 -31.4527948 50.69483124 -31.4727478 51.71080017 C-31.53202664 54.82794835 -31.57872039 57.94513451 -31.625 61.0625 C-31.66322744 63.1894683 -31.70228187 65.3164219 -31.7421875 67.44335938 C-31.83768509 72.62878544 -31.92190473 77.81428384 -32 83 C-35.33250502 84.11083501 -37.93038958 84.16759585 -41.4375 84.1875 C-42.57058594 84.20167969 -43.70367188 84.21585937 -44.87109375 84.23046875 C-47.92224894 84.00572698 -49.38059666 83.43073079 -52 82 C-52.02312343 71.45618688 -52.04091509 60.91237975 -52.05181217 50.36854649 C-52.057041 45.47314626 -52.06413864 40.57776332 -52.07543945 35.68237305 C-52.08626834 30.96212022 -52.09227684 26.24188408 -52.09487724 21.5216198 C-52.09673149 19.71661046 -52.10035209 17.91160208 -52.10573006 16.10659981 C-52.11294052 13.58740356 -52.11399094 11.0682771 -52.11352539 8.54907227 C-52.11712067 7.79525772 -52.12071594 7.04144318 -52.12442017 6.26478577 C-52.11405216 1.11405216 -52.11405216 1.11405216 -51 0 C-48.17743509 -0.10007008 -45.3847681 -0.13875598 -42.5625 -0.125 C-41.77294922 -0.12886719 -40.98339844 -0.13273438 -40.16992188 -0.13671875 C-34.25326133 -0.12663067 -34.25326133 -0.12663067 -32 1 C-31.5859375 3.06640625 -31.5859375 3.06640625 -31.375 5.5625 C-31.30023437 6.38878906 -31.22546875 7.21507812 -31.1484375 8.06640625 C-31.09945312 8.70449219 -31.05046875 9.34257812 -31 10 C-30.29875 9.0925 -29.5975 8.185 -28.875 7.25 C-21.3406198 -1.72353148 -10.73291353 -4.29316541 0 0 Z " fill="#227261" transform="translate(624,179)"/>
<path d="M0 0 C0.66 1.32 1.32 2.64 2 4 C2.66 2.68 3.32 1.36 4 0 C4.02505615 0.93384521 4.0501123 1.86769043 4.07592773 2.82983398 C4.17086928 6.28325189 4.27011258 9.7364896 4.37231445 13.18969727 C4.41571813 14.68639269 4.45738913 16.18313939 4.49731445 17.67993164 C4.55488616 19.82714312 4.61861716 21.97409521 4.68359375 24.12109375 C4.72025146 25.4145874 4.75690918 26.70808105 4.79467773 28.04077148 C4.6667278 30.88555008 4.6667278 30.88555008 6 32 C6.45933014 39.00478469 6.45933014 39.00478469 4.875 42.4375 C2.21393887 44.65505094 0.4526481 45 -3 45 C-5.8125 43.5 -5.8125 43.5 -8 41 C-8.8125 37.25 -8.8125 37.25 -9 34 C-8.01 33.505 -8.01 33.505 -7 33 C-5.90088451 29.70265354 -5.8860544 27.27041255 -5.90234375 23.80078125 C-5.90556641 22.59228516 -5.90878906 21.38378906 -5.91210938 20.13867188 C-5.92048828 18.87603516 -5.92886719 17.61339844 -5.9375 16.3125 C-5.94201172 15.03826172 -5.94652344 13.76402344 -5.95117188 12.45117188 C-5.96297127 9.30073436 -5.97943403 6.15039051 -6 3 C-5.34 3 -4.68 3 -4 3 C-4 11.25 -4 19.5 -4 28 C-3.34 28 -2.68 28 -2 28 C-2 22.39 -2 16.78 -2 11 C-2.33 11 -2.66 11 -3 11 C-3.36923077 4.6 -3.36923077 4.6 -1.5 1.5625 C-1.005 1.046875 -0.51 0.53125 0 0 Z " fill="#307D6E" transform="translate(265,131)"/>
<path d="M0 0 C1.42892578 -0.03867188 1.42892578 -0.03867188 2.88671875 -0.078125 C3.68722656 0.03015625 4.48773437 0.1384375 5.3125 0.25 C5.9725 1.24 6.6325 2.23 7.3125 3.25 C1.7025 3.25 -3.9075 3.25 -9.6875 3.25 C-9.6875 38.23 -9.6875 73.21 -9.6875 109.25 C-10.0175 109.25 -10.3475 109.25 -10.6875 109.25 C-10.6875 73.61 -10.6875 37.97 -10.6875 1.25 C-6.90635474 0.49377095 -3.79777438 0.06217366 0 0 Z " fill="#124533" transform="translate(645.6875,151.75)"/>
<path d="M0 0 C0.33 0 0.66 0 1 0 C1 25.08 1 50.16 1 76 C-3.71322151 68.93016774 -2.07004905 58.31805903 -1.9140625 50.13671875 C-1.89282318 48.82717728 -1.87158386 47.5176358 -1.84970093 46.16841125 C-1.80451044 43.41419807 -1.75532191 40.66009494 -1.703125 37.90600586 C-1.63657679 34.38119969 -1.57940576 30.85631522 -1.52509499 27.33130169 C-1.47194352 23.95385483 -1.41149288 20.57655225 -1.3515625 17.19921875 C-1.33171295 15.93567062 -1.3118634 14.6721225 -1.29141235 13.37028503 C-1.26823944 12.19839127 -1.24506653 11.0264975 -1.22119141 9.8190918 C-1.20263092 8.78922653 -1.18407043 7.75936127 -1.16494751 6.69828796 C-1.01942507 4.3177643 -0.67688844 2.2781836 0 0 Z " fill="#165845" transform="translate(705,155)"/>
<path d="M0 0 C0.33 0 0.66 0 1 0 C0.67 17.49 0.34 34.98 0 53 C-0.66 53 -1.32 53 -2 53 C-2.05080722 46.41637475 -2.08577864 39.83280029 -2.10986328 33.24902344 C-2.11990632 31.01039745 -2.13354331 28.77178452 -2.15087891 26.53320312 C-2.17520157 23.31116505 -2.18650026 20.08930079 -2.1953125 16.8671875 C-2.20563507 15.87008759 -2.21595764 14.87298767 -2.22659302 13.84567261 C-2.22739999 8.82138033 -2.00307916 4.70619636 0 0 Z " fill="#1C5B48" transform="translate(592,208)"/>
<path d="M0 0 C18.15 0 36.3 0 55 0 C55 0.33 55 0.66 55 1 C53.19402344 1.09087891 53.19402344 1.09087891 51.3515625 1.18359375 C49.77602923 1.26799732 48.20050904 1.35264541 46.625 1.4375 C45.8309375 1.47681641 45.036875 1.51613281 44.21875 1.55664062 C39.97398779 1.68893404 39.97398779 1.68893404 36 3 C33.29574021 2.9463485 30.6271333 2.82991982 27.9296875 2.66015625 C26.73534592 2.59144569 26.73534592 2.59144569 25.51687622 2.52134705 C22.96924939 2.37358363 20.4221572 2.2181303 17.875 2.0625 C16.14976926 1.96108244 14.42450906 1.86016462 12.69921875 1.75976562 C8.46578203 1.51231179 4.23280904 1.25795949 0 1 C0 0.67 0 0.34 0 0 Z " fill="#125A47" transform="translate(420,225)"/>
<path d="M0 0 C0.495 0.99 0.495 0.99 1 2 C-11.87 2 -24.74 2 -38 2 C-38.33 1.34 -38.66 0.68 -39 0 C-25.89870557 -0.80614913 -13.08575002 -1.1280819 0 0 Z " fill="#0E5341" transform="translate(457,213)"/>
<path d="M0 0 C4.4936648 0.57852571 8.11492117 1.80189874 12.25 3.625 C18.2603692 6.033288 22.71576437 6.43274898 29 5 C29 5.66 29 6.32 29 7 C23.93827456 8.97530749 19.22277435 10.17704639 13.93579102 8.24609375 C11.77061541 7.22847867 9.66605403 6.13934491 7.5625 5 C6.83095703 4.6184375 6.09941406 4.236875 5.34570312 3.84375 C3.55710335 2.90853443 1.77757404 1.95600621 0 1 C0 0.67 0 0.34 0 0 Z " fill="#316E5F" transform="translate(172,200)"/>
<path d="M0 0 C0.33 0 0.66 0 1 0 C1.125 2.875 1.125 2.875 1 6 C-1 8 -1 8 -4.625 8.23046875 C-6.0833982 8.22647678 -7.54179743 8.2117184 -9 8.1875 C-9.73734375 8.18685547 -10.4746875 8.18621094 -11.234375 8.18554688 C-16.71898191 8.14050904 -16.71898191 8.14050904 -19 7 C-19 6.34 -19 5.68 -19 5 C-13.06 5 -7.12 5 -1 5 C-0.67 3.35 -0.34 1.7 0 0 Z " fill="#377262" transform="translate(916,255)"/>
<path d="M0 0 C0.33 0 0.66 0 1 0 C1.33 2.64 1.66 5.28 2 8 C2.33 8 2.66 8 3 8 C3 14.27 3 20.54 3 27 C2.01 26.67 1.02 26.34 0 26 C0 17.42 0 8.84 0 0 Z " fill="#115D4B" transform="translate(261,133)"/>
<path d="M0 0 C0.66 0 1.32 0 2 0 C2.06058594 0.83144531 2.12117188 1.66289062 2.18359375 2.51953125 C2.30927734 4.14955078 2.30927734 4.14955078 2.4375 5.8125 C2.55931641 7.43091797 2.55931641 7.43091797 2.68359375 9.08203125 C2.90212461 12.05989905 2.90212461 12.05989905 4 15 C3.34 15 2.68 15 2 15 C2 15.99 2 16.98 2 18 C-4.27 18 -10.54 18 -17 18 C-17 17.67 -17 17.34 -17 17 C-11.39 17 -5.78 17 0 17 C0 11.39 0 5.78 0 0 Z " fill="#1B6853" transform="translate(475,209)"/>
<path d="M0 0 C3.56669804 0.60231399 6.57808629 1.56157501 9.86328125 3.06640625 C11.19262695 3.6706543 11.19262695 3.6706543 12.54882812 4.28710938 C13.46083984 4.70798828 14.37285156 5.12886719 15.3125 5.5625 C16.24384766 5.98724609 17.17519531 6.41199219 18.13476562 6.84960938 C20.4253672 7.89506343 22.71363659 8.94531756 25 10 C25 10.66 25 11.32 25 12 C21.43330196 11.39768601 18.42191371 10.43842499 15.13671875 8.93359375 C14.25048828 8.53076172 13.36425781 8.12792969 12.45117188 7.71289062 C11.53916016 7.29201172 10.62714844 6.87113281 9.6875 6.4375 C8.75615234 6.01275391 7.82480469 5.58800781 6.86523438 5.15039062 C4.5746328 4.10493657 2.28636341 3.05468244 0 2 C0 1.34 0 0.68 0 0 Z " fill="#2B6B5B" transform="translate(121,132)"/>
<path d="M0 0 C3.4368383 1.14561277 3.78612559 1.76679035 5.6640625 4.7109375 C6.14617188 5.46117187 6.62828125 6.21140625 7.125 6.984375 C7.8675 8.16773438 7.8675 8.16773438 8.625 9.375 C9.12773438 10.15617188 9.63046875 10.93734375 10.1484375 11.7421875 C13.85226739 17.55680216 13.85226739 17.55680216 15 21 C14.34 21.33 13.68 21.66 13 22 C10.82596202 18.71314634 8.66204206 15.41975432 6.5 12.125 C5.87996094 11.18785156 5.25992188 10.25070313 4.62109375 9.28515625 C4.03457031 8.38925781 3.44804688 7.49335938 2.84375 6.5703125 C2.02680664 5.32918701 2.02680664 5.32918701 1.19335938 4.06298828 C0 2 0 2 0 0 Z " fill="#266652" transform="translate(665,171)"/>
<path d="M0 0 C1.58206057 0.00667536 3.16410534 0.0186375 4.74609375 0.03515625 C5.55240234 0.03966797 6.35871094 0.04417969 7.18945312 0.04882812 C9.18753131 0.06065107 11.18557158 0.07858711 13.18359375 0.09765625 C13.51359375 0.75765625 13.84359375 1.41765625 14.18359375 2.09765625 C11.14935394 3.61477615 8.00854581 3.28204882 4.68359375 3.28515625 C3.99394531 3.29740234 3.30429687 3.30964844 2.59375 3.32226562 C0.78881881 3.3275432 -1.01558467 3.21950083 -2.81640625 3.09765625 C-3.47640625 2.43765625 -4.13640625 1.77765625 -4.81640625 1.09765625 C-3.81640625 0.09765625 -3.81640625 0.09765625 0 0 Z " fill="#347662" transform="translate(639.81640625,259.90234375)"/>
<path d="M0 0 C3.05269529 2.85855459 5.29259507 5.76560162 7.5 9.3125 C8.09941406 10.27414063 8.69882812 11.23578125 9.31640625 12.2265625 C11.27470831 15.45253574 13.16732986 18.70119375 15 22 C14.01 22 13.02 22 12 22 C10.77319336 20.57885742 10.77319336 20.57885742 9.58984375 18.60546875 C9.15736328 17.89712891 8.72488281 17.18878906 8.27929688 16.45898438 C7.83650391 15.70939453 7.39371094 14.95980469 6.9375 14.1875 C6.05088112 12.7225958 5.16416598 11.25774986 4.27734375 9.79296875 C3.88796631 9.1383667 3.49858887 8.48376465 3.09741211 7.80932617 C2.10854464 6.17895981 1.05771209 4.58656814 0 3 C0 2.01 0 1.02 0 0 Z " fill="#296451" transform="translate(689,238)"/>
<path d="M0 0 C3.11590445 2.90361206 5.33698235 5.87544329 7.5625 9.5 C9.98651981 13.4345228 9.98651981 13.4345228 12.71484375 17.15625 C14 19 14 19 14 22 C13.34 22 12.68 22 12 22 C10.67138672 20.3034668 10.67138672 20.3034668 9.1796875 17.94921875 C8.64472656 17.10552734 8.10976563 16.26183594 7.55859375 15.39257812 C6.72521484 14.05356445 6.72521484 14.05356445 5.875 12.6875 C5.31167969 11.80642578 4.74835937 10.92535156 4.16796875 10.01757812 C0 3.38213151 0 3.38213151 0 0 Z " fill="#266352" transform="translate(674,215)"/>
<path d="M0 0 C1.1127832 -0.01836914 1.1127832 -0.01836914 2.24804688 -0.03710938 C4.18763629 -0.04238478 6.1267371 0.06561098 8.0625 0.1875 C8.7225 0.8475 9.3825 1.5075 10.0625 2.1875 C6.71359379 3.30380207 4.08710739 3.35515424 0.5625 3.375 C-0.5821875 3.38917969 -1.726875 3.40335937 -2.90625 3.41796875 C-5.9375 3.1875 -5.9375 3.1875 -8.9375 1.1875 C-6.89483571 -0.85516429 -2.80058566 0.00242056 0 0 Z " fill="#317664" transform="translate(581.9375,259.8125)"/>
<path d="M0 0 C5.61 0 11.22 0 17 0 C17 0.99 17 1.98 17 3 C14.91673869 3.02709444 12.83337559 3.04643873 10.75 3.0625 C9.00976562 3.07990234 9.00976562 3.07990234 7.234375 3.09765625 C4.59022872 3.01782092 2.50173909 2.78643778 0 2 C0 1.34 0 0.68 0 0 Z " fill="#316F5E" transform="translate(703,260)"/>
<path d="M0 0 C0.66 0.33 1.32 0.66 2 1 C1.979375 2.134375 1.95875 3.26875 1.9375 4.4375 C1.58422523 7.81575674 1.58422523 7.81575674 3 9 C4.34747084 9.23075082 5.70377565 9.41153063 7.0625 9.5625 C8.361875 9.706875 9.66125 9.85125 11 10 C10.67 10.66 10.34 11.32 10 12 C7.25 12.875 7.25 12.875 4 13 C1.1875 11.5 1.1875 11.5 -1 9 C-1.9375 5.375 -1.9375 5.375 -2 2 C-1.34 1.34 -0.68 0.68 0 0 Z " fill="#2D7566" transform="translate(258,163)"/>
<path d="M0 0 C2.76276177 0.52268466 5.3260876 1.10869587 8 2 C10.56634861 2.22718496 13.11678107 2.41608184 15.6875 2.5625 C16.38939453 2.60568359 17.09128906 2.64886719 17.81445312 2.69335938 C19.54275206 2.7991736 21.2713511 2.90006581 23 3 C22.67 3.66 22.34 4.32 22 5 C6.07061503 5.738041 6.07061503 5.738041 0 1 C0 0.67 0 0.34 0 0 Z " fill="#286555" transform="translate(763,243)"/>
<path d="M0 0 C0 0.33 0 0.66 0 1 C-7.59 1.33 -15.18 1.66 -23 2 C-22.01 1.67 -21.02 1.34 -20 1 C-20 0.34 -20 -0.32 -20 -1 C-12.77852978 -1.99606486 -6.97631644 -2.65764436 0 0 Z " fill="#246552" transform="translate(787,179)"/>
<path d="M0 0 C-6.32397857 4.21598571 -14.76697581 3.22824939 -22 2 C-22 1.34 -22 0.68 -22 0 C-18.89635771 -0.19696449 -15.79207808 -0.38093262 -12.6875 -0.5625 C-11.36588867 -0.64661133 -11.36588867 -0.64661133 -10.01757812 -0.73242188 C-8.74624023 -0.80493164 -8.74624023 -0.80493164 -7.44921875 -0.87890625 C-6.27879028 -0.94960327 -6.27879028 -0.94960327 -5.0847168 -1.02172852 C-3 -1 -3 -1 0 0 Z " fill="#266451" transform="translate(790,262)"/>
<path d="M0 0 C0.66 0 1.32 0 2 0 C2 0.66 2 1.32 2 2 C2.66 2.33 3.32 2.66 4 3 C3.67 3.33 3.34 3.66 3 4 C2.84285346 5.63256758 2.74914586 7.27135338 2.68359375 8.91015625 C2.64169922 9.89951172 2.59980469 10.88886719 2.55664062 11.90820312 C2.49766602 13.46958008 2.49766602 13.46958008 2.4375 15.0625 C2.39431641 16.10728516 2.35113281 17.15207031 2.30664062 18.22851562 C2.20018775 20.81886884 2.0981724 23.40932186 2 26 C1.67 26 1.34 26 1 26 C-0.16711095 17.33003296 -0.09744014 8.72630608 0 0 Z " fill="#296C5B" transform="translate(141,150)"/>
<path d="M0 0 C0.99 0 1.98 0 3 0 C4.18483019 2.17924124 5.34738133 4.36629415 6.5 6.5625 C6.83386719 7.17158203 7.16773438 7.78066406 7.51171875 8.40820312 C9.76828463 12.76015161 10.36065905 15.99585571 10 21 C7.71689838 18.71689838 7.47250356 17.5149066 6.6875 14.4375 C5.19152111 9.13988402 2.85994205 4.67990517 0 0 Z " fill="#236350" transform="translate(807,192)"/>
<path d="M0 0 C0.99 0.33 1.98 0.66 3 1 C2.46890625 1.53367188 1.9378125 2.06734375 1.390625 2.6171875 C-3.72208243 8.00978767 -6.7531775 12.91955277 -9 20 C-9.33 20 -9.66 20 -10 20 C-9.6948839 11.60930723 -6.0484487 5.74059353 0 0 Z " fill="#246452" transform="translate(411,187)"/>
<path d="M0 0 C0.78552246 0.01047363 1.57104492 0.02094727 2.38037109 0.03173828 C3.23115234 0.03818359 4.08193359 0.04462891 4.95849609 0.05126953 C6.29267578 0.07640625 6.29267578 0.07640625 7.65380859 0.10205078 C8.99958984 0.11558594 8.99958984 0.11558594 10.37255859 0.12939453 C12.59157445 0.15300108 14.81005937 0.18592768 17.02880859 0.22705078 C17.02880859 0.88705078 17.02880859 1.54705078 17.02880859 2.22705078 C9.84830675 2.93853343 3.15852009 3.48523516 -3.97119141 2.22705078 C-1.97119141 0.22705078 -1.97119141 0.22705078 0 0 Z " fill="#196756" transform="translate(332.97119140625,259.77294921875)"/>
<path d="M0 0 C2.03120707 3.04681061 2.24659875 3.60118324 2.1953125 7.01171875 C2.18886719 7.76904297 2.18242188 8.52636719 2.17578125 9.30664062 C2.15902344 10.09232422 2.14226562 10.87800781 2.125 11.6875 C2.11597656 12.48478516 2.10695313 13.28207031 2.09765625 14.10351562 C2.07411585 16.069139 2.03824547 18.03460775 2 20 C1.34 20.33 0.68 20.66 0 21 C-0.7938642 13.78194245 -1.07875823 7.19172157 0 0 Z " fill="#105D49" transform="translate(102,240)"/>
<path d="M0 0 C2.45862401 -0.05383848 4.9160755 -0.09359038 7.375 -0.125 C8.42300781 -0.15013672 8.42300781 -0.15013672 9.4921875 -0.17578125 C11.32897486 -0.19344267 13.16601963 -0.10303261 15 0 C15.66 0.66 16.32 1.32 17 2 C12.05 2 7.1 2 2 2 C2 3.98 2 5.96 2 8 C0 6 0 6 -0.125 2.875 C-0.08375 1.92625 -0.0425 0.9775 0 0 Z " fill="#2C7566" transform="translate(417,226)"/>
<path d="M0 0 C0.66 0.33 1.32 0.66 2 1 C2 7.6 2 14.2 2 21 C1.67 21 1.34 21 1 21 C0.67 19.35 0.34 17.7 0 16 C-0.33 16 -0.66 16 -1 16 C-0.67 10.72 -0.34 5.44 0 0 Z " fill="#2B7B6A" transform="translate(283,220)"/>
<path d="M0 0 C2.6274838 1.28680869 5.25196683 2.57917678 7.875 3.875 C8.62136719 4.23980469 9.36773437 4.60460937 10.13671875 4.98046875 C10.85214844 5.33496094 11.56757813 5.68945312 12.3046875 6.0546875 C12.96452637 6.37937012 13.62436523 6.70405273 14.30419922 7.03857422 C16 8 16 8 18 10 C13.3110507 9.44380331 9.80075733 8.11817327 5.625 5.9375 C4.56539062 5.38964844 3.50578125 4.84179688 2.4140625 4.27734375 C1.61742187 3.85582031 0.82078125 3.43429687 0 3 C0 2.01 0 1.02 0 0 Z " fill="#276758" transform="translate(165,279)"/>
<path d="M0 0 C4.06564732 1.35521577 5.1350785 4.04035171 7.1875 7.5625 C7.55552734 8.17802734 7.92355469 8.79355469 8.30273438 9.42773438 C9.209679 10.94716109 10.10588168 12.47299033 11 14 C10.34 14.66 9.68 15.32 9 16 C7.49445366 13.71180854 5.99542957 11.41978831 4.5 9.125 C4.07074219 8.47402344 3.64148438 7.82304687 3.19921875 7.15234375 C0 2.2265625 0 2.2265625 0 0 Z " fill="#22614E" transform="translate(659,193)"/>
<path d="M0 0 C0.33 0 0.66 0 1 0 C1 2.31 1 4.62 1 7 C-5.27 7 -11.54 7 -18 7 C-15.18802543 4.18802543 -12.15988755 4.30097443 -8.375 3.875 C-7.66859375 3.78863281 -6.9621875 3.70226562 -6.234375 3.61328125 C-4.49049859 3.40118817 -2.7453516 3.19959009 -1 3 C-0.67 2.01 -0.34 1.02 0 0 Z " fill="#3E836D" transform="translate(622,192)"/>
<path d="M0 0 C1.2518241 2.95885695 1.00203521 3.99475129 -0.1875 7.0625 C-1.93946511 9.90189174 -3.11943231 11.37968067 -6 13 C-6.99 13 -7.98 13 -9 13 C-9 12.34 -9 11.68 -9 11 C-8.236875 10.608125 -7.47375 10.21625 -6.6875 9.8125 C-3.01749312 7.33737908 -2.52030907 5.10483449 -1 1 C-0.67 0.67 -0.34 0.34 0 0 Z " fill="#206857" transform="translate(279,168)"/>
<path d="M0 0 C2.97810526 1.05109597 5.31187401 2.21233975 7.9375 4 C10.93353271 5.95659279 13.57680379 7.02194394 17 8 C17 8.33 17 8.66 17 9 C11.29087494 9.9014408 7.77717014 7.45254694 3.07421875 4.60546875 C1 3 1 3 0 0 Z " fill="#266452" transform="translate(411,253)"/>
<path d="M0 0 C0.99 0.33 1.98 0.66 3 1 C2.38125 1.70125 1.7625 2.4025 1.125 3.125 C-2.39988929 8.27483825 -2.37147198 14.96282294 -3 21 C-3.33 21 -3.66 21 -4 21 C-4.738041 6.21867882 -4.738041 6.21867882 0 0 Z " fill="#1A5744" transform="translate(491,223)"/>
<path d="M0 0 C5.22576133 0.31671281 8.63673063 3.21065608 12 7 C12.9375 9.875 12.9375 9.875 13 12 C12.278125 11.2575 11.55625 10.515 10.8125 9.75 C5.98057306 4.97264291 5.98057306 4.97264291 0 2 C0 1.34 0 0.68 0 0 Z " fill="#276754" transform="translate(456,182)"/>
<path d="M0 0 C3.8809456 1.29364853 4.56689295 2.90703342 6.75 6.3125 C7.38421875 7.27800781 8.0184375 8.24351562 8.671875 9.23828125 C10 12 10 12 9.703125 14.35546875 C9.47109375 14.89816406 9.2390625 15.44085938 9 16 C7.49445366 13.71180854 5.99542957 11.41978831 4.5 9.125 C4.07074219 8.47402344 3.64148438 7.82304687 3.19921875 7.15234375 C0 2.2265625 0 2.2265625 0 0 Z " fill="#21604D" transform="translate(686,203)"/>
<path d="M0 0 C0.99 0 1.98 0 3 0 C3.20674944 5.78898419 2.59162079 10.42932723 1 16 C0.67 16 0.34 16 0 16 C0 10.72 0 5.44 0 0 Z " fill="#286A5B" transform="translate(621,179)"/>
<path d="M0 0 C6 2 12 4 18 6 C18 6.33 18 6.66 18 7 C11.77586566 7.54122907 6.44872338 6.12101205 1 3 C0.67 2.01 0.34 1.02 0 0 Z " fill="#246353" transform="translate(174,155)"/>
<path d="M0 0 C0.33 0 0.66 0 1 0 C1 6.27 1 12.54 1 19 C0.01 19 -0.98 19 -2 19 C-2 15.7 -2 12.4 -2 9 C-1.67 9 -1.34 9 -1 9 C-0.67 6.03 -0.34 3.06 0 0 Z " fill="#338E83" transform="translate(284,244)"/>
<path d="M0 0 C7.5 4.5 7.5 4.5 15 9 C14.01 9.66 13.02 10.32 12 11 C10.36762448 9.92781239 8.74433197 8.84178756 7.125 7.75 C6.22007812 7.14671875 5.31515625 6.5434375 4.3828125 5.921875 C2.03730749 4.03009063 1.067371 2.77271086 0 0 Z " fill="#296958" transform="translate(136,188)"/>
<path d="M0 0 C2.32590854 3.63423209 2.16265833 6.77088331 2 11 C1.34 11 0.68 11 0 11 C0 13.64 0 16.28 0 19 C-0.33 19 -0.66 19 -1 19 C-1.02690104 16.20826945 -1.04679053 13.41679652 -1.0625 10.625 C-1.07087891 9.8309375 -1.07925781 9.036875 -1.08789062 8.21875 C-1.11328125 2.2265625 -1.11328125 2.2265625 0 0 Z " fill="#176858" transform="translate(283,209)"/>
<path d="M0 0 C3 1 3 1 3.984375 2.6015625 C5.86710022 7.57733629 6.19092858 10.80322074 5 16 C4.67 16 4.34 16 4 16 C3.87882813 15.34773437 3.75765625 14.69546875 3.6328125 14.0234375 C2.71056011 9.21353658 1.69832723 4.60974535 0 0 Z " fill="#286957" transform="translate(551,191)"/>
<path d="M0 0 C0 0.33 0 0.66 0 1 C-2.8125 1.46875 -2.8125 1.46875 -5.625 1.9375 C-7.19121094 2.19853516 -7.19121094 2.19853516 -8.7890625 2.46484375 C-11.859375 2.9765625 -14.9296875 3.48828125 -18 4 C-11.87095597 -1.42858185 -7.72375851 -1.17820045 0 0 Z " fill="#1D5C4A" transform="translate(444,193)"/>
<path d="M0 0 C0 0.66 0 1.32 0 2 C-2.12472576 2.05386629 -4.24983652 2.09273071 -6.375 2.125 C-8.15003906 2.15980469 -8.15003906 2.15980469 -9.9609375 2.1953125 C-13 2 -13 2 -15 0 C-9.77254141 -1.2063366 -5.23471686 -0.75612577 0 0 Z " fill="#2D6857" transform="translate(344,153)"/>
<path d="M0 0 C4.75481646 0.57634139 7.97048212 2.55068521 12 5 C12 5.66 12 6.32 12 7 C7.76570244 5.68938409 3.92592596 4.05643741 0 2 C0 1.34 0 0.68 0 0 Z " fill="#2C6B5B" transform="translate(166,299)"/>
<path d="M0 0 C1 3 1 3 -0.07421875 5.2265625 C-0.87279297 6.41378906 -0.87279297 6.41378906 -1.6875 7.625 C-2.20699219 8.42164063 -2.72648437 9.21828125 -3.26171875 10.0390625 C-5.17418516 12.19649652 -6.18771639 12.64463519 -9 13 C-8.60167969 12.48050781 -8.20335937 11.96101562 -7.79296875 11.42578125 C-4.97822677 7.72073158 -2.28614026 4.06424935 0 0 Z " fill="#226250" transform="translate(473,242)"/>
<path d="M0 0 C0 0.66 0 1.32 0 2 C-1.74818591 2.22304441 -3.49870323 2.4278645 -5.25 2.625 C-6.22453125 2.74101562 -7.1990625 2.85703125 -8.203125 2.9765625 C-11.13429393 3.00112537 -12.54528964 2.5312717 -15 1 C-9.94997778 -0.03590199 -5.12583611 -0.10251672 0 0 Z " fill="#3B7B69" transform="translate(443,177)"/>
<path d="M0 0 C0 0.33 0 0.66 0 1 C-7.92 1.495 -7.92 1.495 -16 2 C-11.58316198 -2.41683802 -5.67113822 -0.80310236 0 0 Z " fill="#1F5C4A" transform="translate(529,193)"/>
<path d="M0 0 C0.60328125 0.19722656 1.2065625 0.39445313 1.828125 0.59765625 C1.10496094 1.06945312 1.10496094 1.06945312 0.3671875 1.55078125 C-4.42558852 4.69154373 -4.42558852 4.69154373 -7.171875 9.59765625 C-7.484375 6.84765625 -7.484375 6.84765625 -7.171875 3.59765625 C-3.28860468 -0.60921993 -3.28860468 -0.60921993 0 0 Z " fill="#236452" transform="translate(205.171875,213.40234375)"/>
<path d="M0 0 C0.98484375 0.11085938 1.9696875 0.22171875 2.984375 0.3359375 C3.73203125 0.43132812 4.4796875 0.52671875 5.25 0.625 C4.59 1.285 3.93 1.945 3.25 2.625 C0.2109375 2.6015625 0.2109375 2.6015625 -3.375 2.25 C-4.56351562 2.13914062 -5.75203125 2.02828125 -6.9765625 1.9140625 C-7.89179688 1.81867188 -8.80703125 1.72328125 -9.75 1.625 C-6.30824478 -0.52199969 -3.9779708 -0.47356795 0 0 Z " fill="#367E70" transform="translate(513.75,262.375)"/>
<path d="M0 0 C4.05283743 1.35094581 4.87056128 3.37995418 7 7 C7.75 9.375 7.75 9.375 8 11 C4.28423837 8.61129609 2.24868629 5.77458056 0 2 C0 1.34 0 0.68 0 0 Z " fill="#306958" transform="translate(740,242)"/>
<path d="M0 0 C2.94751667 2.74423966 5.22773678 5.36219655 7 9 C6.67 9.99 6.34 10.98 6 12 C4.99157547 10.56839732 3.99352109 9.12948547 3 7.6875 C2.1646875 6.48673828 2.1646875 6.48673828 1.3125 5.26171875 C0 3 0 3 0 0 Z " fill="#1E5C4A" transform="translate(674,215)"/>
<path d="M0 0 C2.97526665 2.55022856 4.50122302 5.40293526 6 9 C5.67 9.99 5.34 10.98 5 12 C5 11.34 5 10.68 5 10 C4.34 10 3.68 10 3 10 C0.96564469 6.27034861 0 4.33094958 0 0 Z " fill="#306D5E" transform="translate(469,192)"/>
<path d="M0 0 C0.58203125 1.875 0.58203125 1.875 1 4 C-0.3125 6 -0.3125 6 -2 8 C-2.69580267 9.31836295 -3.37224433 10.64791086 -4 12 C-4.65234375 10.265625 -4.65234375 10.265625 -5 8 C-4.00390625 5.859375 -4.00390625 5.859375 -2.5625 3.75 C-2.08941406 3.04359375 -1.61632812 2.3371875 -1.12890625 1.609375 C-0.75636719 1.07828125 -0.38382812 0.5471875 0 0 Z " fill="#30705C" transform="translate(493,188)"/>
<path d="M0 0 C2.1926135 4.2186994 4.36894477 8.60185899 3.625 13.4375 C3.41875 13.953125 3.2125 14.46875 3 15 C-0.16727335 9.8531808 -0.35050464 5.841744 0 0 Z " fill="#347866" transform="translate(841,182)"/>
<path d="M0 0 C-2.33539809 1.55693206 -4.57968756 2.90200646 -7.0625 4.1875 C-7.75472656 4.55230469 -8.44695312 4.91710937 -9.16015625 5.29296875 C-9.76730469 5.52628906 -10.37445313 5.75960937 -11 6 C-11.66 5.67 -12.32 5.34 -13 5 C-10.74037349 0.48074698 -4.66953512 -0.42450319 0 0 Z " fill="#34715F" transform="translate(233,147)"/>
<path d="M0 0 C2.9555377 2.75170751 5.11563315 5.41970299 7 9 C7 9.66 7 10.32 7 11 C6.34 11 5.68 11 5 11 C3.7109375 9.35546875 3.7109375 9.35546875 2.375 7.1875 C1.92898438 6.47980469 1.48296875 5.77210938 1.0234375 5.04296875 C0 3 0 3 0 0 Z " fill="#1E5A49" transform="translate(689,238)"/>
<path d="M0 0 C5.94 0 11.88 0 18 0 C18 0.99 18 1.98 18 3 C17.01 2.67 16.02 2.34 15 2 C12.43365139 1.77281504 9.88321893 1.58391816 7.3125 1.4375 C6.61060547 1.39431641 5.90871094 1.35113281 5.18554688 1.30664062 C3.45724794 1.2008264 1.7286489 1.09993419 0 1 C0 0.67 0 0.34 0 0 Z " fill="#0B4D3A" transform="translate(921,181)"/>
<path d="M0 0 C0.33 0 0.66 0 1 0 C1 4.95 1 9.9 1 15 C1.99 15.33 2.98 15.66 4 16 C3.34 16.66 2.68 17.32 2 18 C0 16 0 16 -0.1953125 12.3046875 C-0.182009 10.82799892 -0.15814835 9.35137642 -0.125 7.875 C-0.11146484 6.74384766 -0.11146484 6.74384766 -0.09765625 5.58984375 C-0.0740687 3.72642746 -0.03819719 1.86317407 0 0 Z " fill="#51A9A7" transform="translate(196,278)"/>
<path d="M0 0 C3.63 0 7.26 0 11 0 C11 0.33 11 0.66 11 1 C8.36 1 5.72 1 3 1 C3 1.66 3 2.32 3 3 C0.36 3 -2.28 3 -5 3 C-5 2.67 -5 2.34 -5 2 C-3.35 2 -1.7 2 0 2 C0 1.34 0 0.68 0 0 Z " fill="#2C6C5C" transform="translate(527,223)"/>
<path d="M0 0 C-1.45264038 0.8638129 -2.9123163 1.71580454 -4.375 2.5625 C-5.59316406 3.27599609 -5.59316406 3.27599609 -6.8359375 4.00390625 C-7.55007812 4.33261719 -8.26421875 4.66132813 -9 5 C-9.66 4.67 -10.32 4.34 -11 4 C-7.51147246 0.16261971 -5.09041622 -1.48780432 0 0 Z " fill="#226251" transform="translate(229,203)"/>
<path d="M0 0 C1.65 0 3.3 0 5 0 C5 0.66 5 1.32 5 2 C7.31 2.66 9.62 3.32 12 4 C11.01 4.66 10.02 5.32 9 6 C7.02 5.01 5.04 4.02 3 3 C3 2.34 3 1.68 3 1 C2.01 0.67 1.02 0.34 0 0 Z " fill="#348469" transform="translate(171,163)"/>
<path d="M0 0 C0.99 0.99 1.98 1.98 3 3 C2.6875 5.6875 2.6875 5.6875 2 8 C1.01 8 0.02 8 -1 8 C-1.33 8.66 -1.66 9.32 -2 10 C-1.34 6.7 -0.68 3.4 0 0 Z " fill="#337763" transform="translate(912,209)"/>
<path d="M0 0 C1.32 0 2.64 0 4 0 C4 1.65 4 3.3 4 5 C2.68 5.33 1.36 5.66 0 6 C0 4.02 0 2.04 0 0 Z " fill="#256A5A" transform="translate(252,175)"/>
<path d="M0 0 C2.97 0.99 5.94 1.98 9 3 C8.01 3.66 7.02 4.32 6 5 C2.3125 4.125 2.3125 4.125 -1 3 C-0.67 2.01 -0.34 1.02 0 0 Z " fill="#317364" transform="translate(155,156)"/>
<path d="M0 0 C1.66611905 -0.042721 3.33382885 -0.04063832 5 0 C6 1 6 1 6.0625 4.5625 C6.041875 5.696875 6.02125 6.83125 6 8 C5.34 8 4.68 8 4 8 C3.896875 7.05125 3.79375 6.1025 3.6875 5.125 C3.31460705 1.70892499 3.31460705 1.70892499 0 0 Z " fill="#2B6556" transform="translate(279,278)"/>
<path d="M0 0 C2.97 0.495 2.97 0.495 6 1 C6.33 2.65 6.66 4.3 7 6 C3.63279613 4.60667426 2.0140476 3.0210714 0 0 Z " fill="#2B7E70" transform="translate(490,254)"/>
<path d="M0 0 C2.04795423 1.9626228 2.94976638 3.4277307 3.19921875 6.26953125 C3.18858877 8.51954383 3.12958525 10.75385562 3 13 C2.67 13 2.34 13 2 13 C1.67 11.35 1.34 9.7 1 8 C0.67 8 0.34 8 0 8 C0 5.36 0 2.72 0 0 Z " fill="#21847A" transform="translate(282,228)"/>
<path d="M0 0 C0.66 0.33 1.32 0.66 2 1 C-0.25 3.5625 -0.25 3.5625 -3 6 C-4.32 5.67 -5.64 5.34 -7 5 C-4.69 3.35 -2.38 1.7 0 0 Z " fill="#2C6E5C" transform="translate(499,217)"/>
<path d="M0 0 C4.75 0.75 4.75 0.75 7 3 C6.67 3.99 6.34 4.98 6 6 C5.34 5.67 4.68 5.34 4 5 C4 4.34 4 3.68 4 3 C2.68 2.67 1.36 2.34 0 2 C0 1.34 0 0.68 0 0 Z " fill="#307765" transform="translate(158,192)"/>
<path d="M0 0 C0.598125 0.350625 1.19625 0.70125 1.8125 1.0625 C-0.15216413 2.13025224 -2.15605359 3.12803465 -4.1875 4.0625 C-4.8475 3.7325 -5.5075 3.4025 -6.1875 3.0625 C-5.8575 2.0725 -5.5275 1.0825 -5.1875 0.0625 C-2.1875 -0.9375 -2.1875 -0.9375 0 0 Z " fill="#3D8477" transform="translate(284.1875,165.9375)"/>
<path d="M0 0 C0.33 0 0.66 0 1 0 C0.25 7.75 0.25 7.75 -2 10 C-2.25 3.375 -2.25 3.375 0 0 Z " fill="#195543" transform="translate(911,217)"/>
<path d="M0 0 C1.32 0.66 2.64 1.32 4 2 C3.34 2 2.68 2 2 2 C1.67 2.99 1.34 3.98 1 5 C-1.64 4.67 -4.28 4.34 -7 4 C-7 3.67 -7 3.34 -7 3 C-4.69 3 -2.38 3 0 3 C0 2.01 0 1.02 0 0 Z " fill="#2F7D6D" transform="translate(344,152)"/>
<path d="M0 0 C3.68754757 0.49831724 5.60490662 1.10067643 8 4 C7.01 4.495 7.01 4.495 6 5 C3.96855359 4.06553465 1.96466413 3.06775224 0 2 C0 1.34 0 0.68 0 0 Z " fill="#2F6E60" transform="translate(155,147)"/>
<path d="M0 0 C2.125 0.375 2.125 0.375 4 1 C2.824375 1.928125 2.824375 1.928125 1.625 2.875 C-0.96837647 4.89858661 -0.96837647 4.89858661 -3 7 C-2.25 2.25 -2.25 2.25 0 0 Z " fill="#21614F" transform="translate(115,119)"/>
<path d="M0 0 C0.33 0 0.66 0 1 0 C1.125 6.75 1.125 6.75 0 9 C-0.66 9 -1.32 9 -2 9 C-1.34 6.03 -0.68 3.06 0 0 Z " fill="#1F6756" transform="translate(926,221)"/>
<path d="M0 0 C0.66 0.33 1.32 0.66 2 1 C0.35 2.65 -1.3 4.3 -3 6 C-3.99 5.67 -4.98 5.34 -6 5 C-4.02 3.35 -2.04 1.7 0 0 Z " fill="#2E6C57" transform="translate(754,183)"/>
<path d="M0 0 C0.99 0.33 1.98 0.66 3 1 C3 2.98 3 4.96 3 7 C2.01 7 1.02 7 0 7 C0 4.69 0 2.38 0 0 Z " fill="#216753" transform="translate(272,121)"/>
<path d="M0 0 C2.97 0.99 5.94 1.98 9 3 C5 5 5 5 2.8125 4.3125 C1 3 1 3 0 0 Z " fill="#387566" transform="translate(248,109)"/>
<path d="M0 0 C0.99 0.33 1.98 0.66 3 1 C2.67 1.66 2.34 2.32 2 3 C0.68 2.34 -0.64 1.68 -2 1 C-1.34 0.67 -0.68 0.34 0 0 Z " fill="#1EE01E" transform="translate(434,228)"/>
<path d="M0 0 C0.99 0.33 1.98 0.66 3 1 C2.34 1.66 1.68 2.32 1 3 C0.67 2.01 0.34 1.02 0 0 Z " fill="#22DDDD" transform="translate(178,308)"/>
<path d="M0 0 C0.99 0.495 0.99 0.495 2 1 C1.67 1.99 1.34 2.98 1 4 C0.67 2.68 0.34 1.36 0 0 Z " fill="#19E519" transform="translate(833,230)"/>
<path d="M0 0 C1.98 0.99 1.98 0.99 4 2 C2.68 1.67 1.36 1.34 0 1 C0 0.67 0 0.34 0 0 Z " fill="#659865" transform="translate(457,228)"/>
<path d="M0 0 C4 1 4 1 4 1 Z " fill="#1FDF9F" transform="translate(136,293)"/>
<path d="M0 0 C0.66 0 1.32 0 2 0 C2 0.66 2 1.32 2 2 C1.34 2 0.68 2 0 2 C0 1.34 0 0.68 0 0 Z " fill="#29C5C5" transform="translate(536,259)"/>
<path d="M0 0 C0 3 0 3 0 3 Z " fill="#15E9E9" transform="translate(753,259)"/>
<path d="M0 0 C0.99 1.485 0.99 1.485 2 3 C1.34 3 0.68 3 0 3 C0 2.01 0 1.02 0 0 Z " fill="#3FBF3F" transform="translate(684,235)"/>
<path d="M0 0 C0.99 0.33 1.98 0.66 3 1 C2.01 1.33 1.02 1.66 0 2 C0 1.34 0 0.68 0 0 Z " fill="#00FF00" transform="translate(792,208)"/>
<path d="M0 0 C4 1 4 1 4 1 Z " fill="#15E9E9" transform="translate(524,175)"/>
<path d="M0 0 C0.99 0.495 0.99 0.495 2 1 C1.67 1.66 1.34 2.32 1 3 C0.67 2.01 0.34 1.02 0 0 Z " fill="#15E915" transform="translate(208,159)"/>
<path d="M0 0 C0 3 0 3 0 3 Z " fill="#6A9494" transform="translate(258,138)"/>
<path d="M0 0 C3 1 3 1 3 1 Z " fill="#42AFAF" transform="translate(161,300)"/>
<path d="M0 0 C0.99 0.495 0.99 0.495 2 1 C1.01 1.495 1.01 1.495 0 2 C0 1.34 0 0.68 0 0 Z " fill="#1CE21C" transform="translate(168,284)"/>
<path d="M0 0 C0.99 0.495 0.99 0.495 2 1 C1.01 1.495 1.01 1.495 0 2 C0 1.34 0 0.68 0 0 Z " fill="#2AD4D4" transform="translate(736,244)"/>
<path d="M0 0 C0.66 0 1.32 0 2 0 C1.67 0.66 1.34 1.32 1 2 C0.67 1.34 0.34 0.68 0 0 Z " fill="#00FF00" transform="translate(438,229)"/>
<path d="M0 0 C0.99 0.495 0.99 0.495 2 1 C1.01 1.495 1.01 1.495 0 2 C0 1.34 0 0.68 0 0 Z " fill="#54A954" transform="translate(465,228)"/>
<path d="" fill="#2AD42A" transform="translate(0,0)"/>
<path d="M0 0 C0.66 0.66 1.32 1.32 2 2 C1.34 2 0.68 2 0 2 C0 1.34 0 0.68 0 0 Z " fill="#508776" transform="translate(673,219)"/>
<path d="" fill="#2AD4D4" transform="translate(0,0)"/>
<path d="" fill="#2AD42A" transform="translate(0,0)"/>
<path d="M0 0 C0.66 0.66 1.32 1.32 2 2 C1.34 2 0.68 2 0 2 C0 1.34 0 0.68 0 0 Z " fill="#54A954" transform="translate(776,196)"/>
<path d="M0 0 C3 1 3 1 3 1 Z " fill="#00FF00" transform="translate(771,197)"/>
<path d="M0 0 C0.66 0 1.32 0 2 0 C1.67 0.66 1.34 1.32 1 2 C0.67 1.34 0.34 0.68 0 0 Z " fill="#5B8D71" transform="translate(442,196)"/>
<path d="M0 0 C3 1 3 1 3 1 Z " fill="#54A9A9" transform="translate(437,175)"/>
<path d="M0 0 C2 1 2 1 2 1 Z " fill="#00FFFF" transform="translate(249,292)"/>
<path d="M0 0 C2 1 2 1 2 1 Z " fill="#00FF00" transform="translate(263,275)"/>
<path d="" fill="#00FFFF" transform="translate(0,0)"/>
<path d="M0 0 C2 1 2 1 2 1 Z " fill="#00FFFF" transform="translate(891,254)"/>
<path d="" fill="#6A9494" transform="translate(0,0)"/>
<path d="" fill="#00FF7F" transform="translate(0,0)"/>
<path d="" fill="#7F7F7F" transform="translate(0,0)"/>
<path d="" fill="#00FF7F" transform="translate(0,0)"/>
<path d="" fill="#3FBF3F" transform="translate(0,0)"/>
<path d="M0 0 C2 1 2 1 2 1 Z " fill="#6A946A" transform="translate(532,240)"/>
<path d="" fill="#3FBF3F" transform="translate(0,0)"/>
<path d="" fill="#3FBF3F" transform="translate(0,0)"/>
<path d="" fill="#3FBF3F" transform="translate(0,0)"/>
<path d="M0 0 C2 1 2 1 2 1 Z " fill="#00FF00" transform="translate(443,229)"/>
<path d="M0 0 C2 1 2 1 2 1 Z " fill="#3FBF3F" transform="translate(427,229)"/>
<path d="M0 0 C2 1 2 1 2 1 Z " fill="#3FBF3F" transform="translate(448,228)"/>
<path d="M0 0 C2 1 2 1 2 1 Z " fill="#6A946A" transform="translate(525,227)"/>
<path d="" fill="#3FBF3F" transform="translate(0,0)"/>
<path d="" fill="#3FBF3F" transform="translate(0,0)"/>
<path d="" fill="#2AD42A" transform="translate(0,0)"/>
<path d="" fill="#3FBFBF" transform="translate(0,0)"/>
<path d="" fill="#00FF7F" transform="translate(0,0)"/>
<path d="" fill="#00FFFF" transform="translate(0,0)"/>
<path d="M0 0 C2 1 2 1 2 1 Z " fill="#00FFFF" transform="translate(517,175)"/>
<path d="M0 0 C2 1 2 1 2 1 Z " fill="#00FF00" transform="translate(162,154)"/>
<path d="" fill="#00FFFF" transform="translate(0,0)"/>
<path d="" fill="#7F7F7F" transform="translate(0,0)"/>
<path d="" fill="#00FFFF" transform="translate(0,0)"/>
<path d="" fill="#00FFFF" transform="translate(0,0)"/>
<path d="" fill="#00FFFF" transform="translate(0,0)"/>
<path d="" fill="#00FFFF" transform="translate(0,0)"/>
<path d="" fill="#7F7F7F" transform="translate(0,0)"/>
<path d="" fill="#7F7F7F" transform="translate(0,0)"/>
<path d="" fill="#7F7F7F" transform="translate(0,0)"/>
<path d="" fill="#7F7F7F" transform="translate(0,0)"/>
<path d="" fill="#00FFFF" transform="translate(0,0)"/>
<path d="" fill="#7F7F7F" transform="translate(0,0)"/>
<path d="" fill="#7F7F7F" transform="translate(0,0)"/>
<path d="" fill="#00FFFF" transform="translate(0,0)"/>
<path d="" fill="#00FF00" transform="translate(0,0)"/>
<path d="" fill="#7F7F7F" transform="translate(0,0)"/>
<path d="" fill="#00FF00" transform="translate(0,0)"/>
<path d="" fill="#00FF00" transform="translate(0,0)"/>
<path d="" fill="#7F7F7F" transform="translate(0,0)"/>
<path d="" fill="#00FF00" transform="translate(0,0)"/>
<path d="" fill="#00FF00" transform="translate(0,0)"/>
<path d="" fill="#00FF00" transform="translate(0,0)"/>
<path d="" fill="#55AA55" transform="translate(0,0)"/>
<path d="" fill="#00FF00" transform="translate(0,0)"/>
<path d="" fill="#7F7F7F" transform="translate(0,0)"/>
<path d="" fill="#00FF00" transform="translate(0,0)"/>
<path d="" fill="#00FF00" transform="translate(0,0)"/>
<path d="" fill="#7F7F7F" transform="translate(0,0)"/>
<path d="" fill="#55AA55" transform="translate(0,0)"/>
<path d="" fill="#00FF00" transform="translate(0,0)"/>
<path d="" fill="#00FF00" transform="translate(0,0)"/>
<path d="" fill="#00FF00" transform="translate(0,0)"/>
<path d="" fill="#00FF00" transform="translate(0,0)"/>
<path d="" fill="#00FF00" transform="translate(0,0)"/>
<path d="" fill="#00FF00" transform="translate(0,0)"/>
<path d="" fill="#00FF00" transform="translate(0,0)"/>
<path d="" fill="#7F7F7F" transform="translate(0,0)"/>
<path d="" fill="#00FF00" transform="translate(0,0)"/>
<path d="" fill="#00FF00" transform="translate(0,0)"/>
<path d="" fill="#00FF00" transform="translate(0,0)"/>
<path d="" fill="#00FF00" transform="translate(0,0)"/>
<path d="" fill="#7F7F7F" transform="translate(0,0)"/>
<path d="" fill="#7F7F7F" transform="translate(0,0)"/>
<path d="" fill="#7F7F7F" transform="translate(0,0)"/>
<path d="" fill="#00FFFF" transform="translate(0,0)"/>
<path d="" fill="#00FFFF" transform="translate(0,0)"/>
<path d="" fill="#00FFFF" transform="translate(0,0)"/>
<path d="" fill="#00FF00" transform="translate(0,0)"/>
<path d="" fill="#00FFFF" transform="translate(0,0)"/>
<path d="" fill="#00FFFF" transform="translate(0,0)"/>
<path d="" fill="#7F7F7F" transform="translate(0,0)"/>
<path d="" fill="#00FFFF" transform="translate(0,0)"/>
<path d="" fill="#55AA55" transform="translate(0,0)"/>
<path d="" fill="#00FFFF" transform="translate(0,0)"/>
<path d="" fill="#7F7F7F" transform="translate(0,0)"/>
<path d="" fill="#7F7F7F" transform="translate(0,0)"/>
<path d="" fill="#00FFFF" transform="translate(0,0)"/>
<path d="" fill="#00FF00" transform="translate(0,0)"/>
<path d="" fill="#00FFFF" transform="translate(0,0)"/>
<path d="" fill="#00FFFF" transform="translate(0,0)"/>
<path d="" fill="#00FF00" transform="translate(0,0)"/>
<path d="" fill="#00FF00" transform="translate(0,0)"/>
<path d="" fill="#00FFFF" transform="translate(0,0)"/>
<path d="" fill="#00FF00" transform="translate(0,0)"/>
<path d="" fill="#00FF00" transform="translate(0,0)"/>
<path d="" fill="#00FF00" transform="translate(0,0)"/>
<path d="" fill="#7F7F7F" transform="translate(0,0)"/>
<path d="" fill="#3F7F7F" transform="translate(0,0)"/>
<path d="" fill="#7F7F7F" transform="translate(0,0)"/>
<path d="" fill="#7F7F7F" transform="translate(0,0)"/>
<path d="" fill="#00FFFF" transform="translate(0,0)"/>
<path d="" fill="#7F7F7F" transform="translate(0,0)"/>
<path d="" fill="#669966" transform="translate(0,0)"/>
<path d="" fill="#339966" transform="translate(0,0)"/>
<path d="" fill="#00FF00" transform="translate(0,0)"/>
<path d="" fill="#00FF00" transform="translate(0,0)"/>
<path d="" fill="#00FF00" transform="translate(0,0)"/>
<path d="" fill="#00FFFF" transform="translate(0,0)"/>
<path d="" fill="#7F7F7F" transform="translate(0,0)"/>
<path d="" fill="#00FF00" transform="translate(0,0)"/>
<path d="" fill="#7F7F7F" transform="translate(0,0)"/>
<path d="" fill="#00FF00" transform="translate(0,0)"/>
<path d="" fill="#00FF00" transform="translate(0,0)"/>
<path d="" fill="#00FF00" transform="translate(0,0)"/>
<path d="" fill="#00FF00" transform="translate(0,0)"/>
<path d="" fill="#7F7F7F" transform="translate(0,0)"/>
<path d="" fill="#00FF00" transform="translate(0,0)"/>
<path d="" fill="#00FF00" transform="translate(0,0)"/>
<path d="" fill="#00FFFF" transform="translate(0,0)"/>
<path d="" fill="#55AA55" transform="translate(0,0)"/>
<path d="" fill="#00FFFF" transform="translate(0,0)"/>
<path d="" fill="#7F7F7F" transform="translate(0,0)"/>
<path d="" fill="#00FF00" transform="translate(0,0)"/>
<path d="" fill="#00FF00" transform="translate(0,0)"/>
<path d="" fill="#00FF00" transform="translate(0,0)"/>
<path d="" fill="#00FF00" transform="translate(0,0)"/>
<path d="" fill="#00FF00" transform="translate(0,0)"/>
<path d="" fill="#7F7F7F" transform="translate(0,0)"/>
<path d="" fill="#55AA55" transform="translate(0,0)"/>
<path d="" fill="#7F7F7F" transform="translate(0,0)"/>
<path d="" fill="#7F7F7F" transform="translate(0,0)"/>
<path d="" fill="#7F7F7F" transform="translate(0,0)"/>
<path d="" fill="#7F7F7F" transform="translate(0,0)"/>
<path d="" fill="#00FF00" transform="translate(0,0)"/>
<path d="" fill="#00FF00" transform="translate(0,0)"/>
<path d="" fill="#7F7F7F" transform="translate(0,0)"/>
<path d="" fill="#00FF00" transform="translate(0,0)"/>
<path d="" fill="#7F7F7F" transform="translate(0,0)"/>
<path d="" fill="#00FFFF" transform="translate(0,0)"/>
<path d="" fill="#00FF00" transform="translate(0,0)"/>
<path d="" fill="#00FF00" transform="translate(0,0)"/>
<path d="" fill="#00FF00" transform="translate(0,0)"/>
<path d="" fill="#7F7F7F" transform="translate(0,0)"/>
<path d="" fill="#7F7F7F" transform="translate(0,0)"/>
<path d="" fill="#00FF00" transform="translate(0,0)"/>
<path d="" fill="#00FF00" transform="translate(0,0)"/>
<path d="" fill="#00FF00" transform="translate(0,0)"/>
<path d="" fill="#00FF00" transform="translate(0,0)"/>
<path d="" fill="#00FF00" transform="translate(0,0)"/>
<path d="" fill="#00FF00" transform="translate(0,0)"/>
<path d="" fill="#7F7F7F" transform="translate(0,0)"/>
<path d="" fill="#00FF00" transform="translate(0,0)"/>
<path d="" fill="#00FF00" transform="translate(0,0)"/>
<path d="" fill="#00FF00" transform="translate(0,0)"/>
<path d="" fill="#00FF00" transform="translate(0,0)"/>
<path d="" fill="#00FF00" transform="translate(0,0)"/>
<path d="" fill="#00FFFF" transform="translate(0,0)"/>
<path d="" fill="#00FF00" transform="translate(0,0)"/>
<path d="" fill="#00FF00" transform="translate(0,0)"/>
<path d="" fill="#00FF00" transform="translate(0,0)"/>
<path d="" fill="#7F7F7F" transform="translate(0,0)"/>
<path d="" fill="#00FF00" transform="translate(0,0)"/>
<path d="" fill="#00FF00" transform="translate(0,0)"/>
<path d="" fill="#00FF00" transform="translate(0,0)"/>
<path d="" fill="#00FF00" transform="translate(0,0)"/>
<path d="" fill="#00FF00" transform="translate(0,0)"/>
<path d="" fill="#00FFFF" transform="translate(0,0)"/>
<path d="" fill="#00FF00" transform="translate(0,0)"/>
<path d="" fill="#00FF00" transform="translate(0,0)"/>
<path d="" fill="#00FF00" transform="translate(0,0)"/>
<path d="" fill="#7F7F7F" transform="translate(0,0)"/>
<path d="" fill="#00FFFF" transform="translate(0,0)"/>
<path d="" fill="#00FF00" transform="translate(0,0)"/>
<path d="" fill="#7F7F7F" transform="translate(0,0)"/>
<path d="" fill="#00FF00" transform="translate(0,0)"/>
<path d="" fill="#00FF00" transform="translate(0,0)"/>
<path d="" fill="#00FF00" transform="translate(0,0)"/>
<path d="" fill="#00FF00" transform="translate(0,0)"/>
<path d="" fill="#00FF00" transform="translate(0,0)"/>
<path d="" fill="#7F7F7F" transform="translate(0,0)"/>
<path d="" fill="#55AA55" transform="translate(0,0)"/>
<path d="" fill="#00FFFF" transform="translate(0,0)"/>
<path d="" fill="#00FF00" transform="translate(0,0)"/>
<path d="" fill="#00FF00" transform="translate(0,0)"/>
<path d="" fill="#00FF00" transform="translate(0,0)"/>
<path d="" fill="#00FF00" transform="translate(0,0)"/>
<path d="" fill="#00FF00" transform="translate(0,0)"/>
<path d="" fill="#00FF00" transform="translate(0,0)"/>
<path d="" fill="#00FFFF" transform="translate(0,0)"/>
<path d="" fill="#7F7F7F" transform="translate(0,0)"/>
<path d="" fill="#00FFFF" transform="translate(0,0)"/>
<path d="" fill="#00FFFF" transform="translate(0,0)"/>
<path d="" fill="#00FF00" transform="translate(0,0)"/>
<path d="" fill="#00FFFF" transform="translate(0,0)"/>
<path d="" fill="#00FF00" transform="translate(0,0)"/>
<path d="" fill="#00FF00" transform="translate(0,0)"/>
<path d="" fill="#00FFFF" transform="translate(0,0)"/>
<path d="" fill="#00FF00" transform="translate(0,0)"/>
<path d="" fill="#55AA55" transform="translate(0,0)"/>
<path d="" fill="#00FFFF" transform="translate(0,0)"/>
<path d="" fill="#00FF00" transform="translate(0,0)"/>
<path d="" fill="#00FFFF" transform="translate(0,0)"/>
<path d="" fill="#00FFFF" transform="translate(0,0)"/>
<path d="" fill="#00FFFF" transform="translate(0,0)"/>
<path d="" fill="#00FFFF" transform="translate(0,0)"/>
<path d="" fill="#7F7F7F" transform="translate(0,0)"/>
<path d="" fill="#00FFFF" transform="translate(0,0)"/>
<path d="" fill="#00FF00" transform="translate(0,0)"/>
<path d="" fill="#7F7F7F" transform="translate(0,0)"/>
<path d="" fill="#00FFFF" transform="translate(0,0)"/>
<path d="" fill="#00FFFF" transform="translate(0,0)"/>
<path d="" fill="#7F7F7F" transform="translate(0,0)"/>
<path d="" fill="#00FFFF" transform="translate(0,0)"/>
<path d="" fill="#00FFFF" transform="translate(0,0)"/>
<path d="" fill="#00FF00" transform="translate(0,0)"/>
<path d="" fill="#FFFFFF" transform="translate(0,0)"/>
<path d="" fill="#AAAAAA" transform="translate(0,0)"/>
<path d="" fill="#00FFFF" transform="translate(0,0)"/>
<path d="" fill="#7F7F7F" transform="translate(0,0)"/>
<path d="" fill="#00FFFF" transform="translate(0,0)"/>
<path d="" fill="#00FF00" transform="translate(0,0)"/>
<path d="" fill="#7F7F7F" transform="translate(0,0)"/>
<path d="" fill="#00FFFF" transform="translate(0,0)"/>
<path d="" fill="#00FFFF" transform="translate(0,0)"/>
<path d="" fill="#00FFFF" transform="translate(0,0)"/>
<path d="" fill="#00FFFF" transform="translate(0,0)"/>
<path d="" fill="#7F7F7F" transform="translate(0,0)"/>
<path d="" fill="#00FFFF" transform="translate(0,0)"/>
<path d="" fill="#00FF00" transform="translate(0,0)"/>
<path d="" fill="#55AA55" transform="translate(0,0)"/>
<path d="" fill="#00FF00" transform="translate(0,0)"/>
<path d="" fill="#00FF00" transform="translate(0,0)"/>
<path d="" fill="#00FF00" transform="translate(0,0)"/>
<path d="" fill="#00FF00" transform="translate(0,0)"/>
<path d="" fill="#00FF00" transform="translate(0,0)"/>
<path d="" fill="#7F7F7F" transform="translate(0,0)"/>
<path d="" fill="#00FF00" transform="translate(0,0)"/>
<path d="" fill="#7F7F7F" transform="translate(0,0)"/>
<path d="" fill="#00FF00" transform="translate(0,0)"/>
<path d="" fill="#00FF00" transform="translate(0,0)"/>
<path d="" fill="#7F7F7F" transform="translate(0,0)"/>
<path d="" fill="#00FF00" transform="translate(0,0)"/>
<path d="" fill="#7F7F7F" transform="translate(0,0)"/>
<path d="" fill="#00FF00" transform="translate(0,0)"/>
<path d="" fill="#7F7F7F" transform="translate(0,0)"/>
<path d="" fill="#00FFFF" transform="translate(0,0)"/>
<path d="" fill="#7FBF7F" transform="translate(0,0)"/>
<path d="" fill="#00FFFF" transform="translate(0,0)"/>
<path d="" fill="#55AA55" transform="translate(0,0)"/>
<path d="" fill="#7F7F7F" transform="translate(0,0)"/>
<path d="" fill="#00FF00" transform="translate(0,0)"/>
<path d="" fill="#00FF00" transform="translate(0,0)"/>
<path d="" fill="#00FF00" transform="translate(0,0)"/>
<path d="" fill="#7F7F7F" transform="translate(0,0)"/>
<path d="" fill="#00FF00" transform="translate(0,0)"/>
<path d="" fill="#00FFFF" transform="translate(0,0)"/>
<path d="" fill="#00FFFF" transform="translate(0,0)"/>
<path d="" fill="#00FFFF" transform="translate(0,0)"/>
<path d="" fill="#00FFFF" transform="translate(0,0)"/>
<path d="" fill="#55AAAA" transform="translate(0,0)"/>
<path d="" fill="#7F7F7F" transform="translate(0,0)"/>
<path d="" fill="#00FFFF" transform="translate(0,0)"/>
<path d="" fill="#00FFFF" transform="translate(0,0)"/>
<path d="" fill="#00FFFF" transform="translate(0,0)"/>
<path d="" fill="#00FFFF" transform="translate(0,0)"/>
</svg>
